<svg width="86" height="76" viewBox="0 0 86 76" fill="none" xmlns="http://www.w3.org/2000/svg">
<g opacity="0.8">
<path d="M52.21 49.1499C59.66 43.4699 70.8301 34.7897 70.8301 3.22974V0.739746H15.6899V3.22974C15.6899 34.9597 26.8601 43.4699 34.3101 49.1499C38.5601 52.5199 40.6899 54.2899 40.6899 58.1499V65.7698C36.6099 66.1298 32.69 67.7698 31.29 70.7698H25.6201C24.294 70.7698 23.0222 71.2967 22.0845 72.2344C21.1468 73.1721 20.6201 74.4437 20.6201 75.7698H65.6201C65.6201 74.4437 65.0932 73.1721 64.1555 72.2344C63.2178 71.2967 61.9462 70.7698 60.6201 70.7698H54.95C53.53 67.7698 49.6301 66.3398 45.55 65.7698V58.1499C45.73 54.0699 47.8601 52.2999 52.1101 49.1499H52.21ZM43.3501 50.5698C41.6616 48.5287 39.6918 46.7374 37.5 45.2498C30.76 39.9298 21.3601 32.84 20.8301 5.70996H65.8301C65.2901 32.84 56.0699 39.9298 49.1599 45.2498C46.9635 46.7316 44.9932 48.5236 43.3101 50.5698H43.3501Z" fill="#2E3192"/>
<path d="M27.9199 43.0898C27.5699 43.0898 0.790039 37.4199 0.790039 8.15991V5.67993H18.3501V10.6799H5.93994C7.34994 33.7299 28.6301 38.1598 28.8101 38.3398L27.9199 43.1299" fill="#2E3192"/>
<path d="M58.77 43.0898L57.71 38.0898C58.6 37.9198 79.1601 33.4799 80.5801 10.4399H68.1699V5.43994H85.8999V7.91992C85.8999 37.3599 59.13 43.0298 58.77 43.0298" fill="#2E3192"/>
</g>
</svg>
