<svg width="76" height="76" viewBox="0 0 76 76" fill="none" xmlns="http://www.w3.org/2000/svg">
<g opacity="0.8">
<path d="M69.5701 5.18994H65.8201V10.0898H69.5701C69.9101 10.0898 70.76 11.0899 70.76 12.6499V67.5798C70.7447 68.2513 70.4713 68.891 69.9963 69.366C69.5214 69.8409 68.8815 70.1146 68.21 70.1299H8.34009C7.66858 70.1146 7.02866 69.8409 6.55371 69.366C6.07876 68.891 5.80531 68.2513 5.79004 67.5798V25.2297H70.5901V20.1299H5.79004V12.6499C5.79004 11.1099 6.46998 10.0898 6.97998 10.0898H10.72V5.15991H7C3.43 5.15991 0.709961 8.5599 0.709961 12.6499V67.5798C0.728218 69.558 1.52231 71.45 2.92114 72.8489C4.31998 74.2477 6.21178 75.0416 8.18994 75.0598H68C69.9971 74.9987 71.9009 74.2009 73.3447 72.8198C74.7886 71.4388 75.6703 69.5722 75.8201 67.5798V12.6499C75.8601 8.5899 73.0001 5.18994 69.5701 5.18994Z" fill="#2E3192"/>
<path d="M18.21 15.2297C18.8716 15.1852 19.4947 14.9025 19.9636 14.4336C20.4325 13.9647 20.7155 13.3416 20.76 12.6799V2.67993C20.7193 2.02993 20.4324 1.41978 19.9578 0.973877C19.4831 0.527975 18.8563 0.279785 18.2051 0.279785C17.5538 0.279785 16.9268 0.527975 16.4521 0.973877C15.9775 1.41978 15.6906 2.02993 15.6499 2.67993V12.6799C15.6677 13.3523 15.9436 13.9921 16.4202 14.4668C16.8967 14.9415 17.5375 15.2146 18.21 15.2297Z" fill="#2E3192"/>
<path d="M58.0002 15.2297C58.6717 15.2145 59.3114 14.941 59.7864 14.4661C60.2613 13.9911 60.535 13.3514 60.5503 12.6799V2.67993C60.5503 2.00363 60.2817 1.35493 59.8035 0.876709C59.3252 0.398491 58.6765 0.129883 58.0002 0.129883C57.3239 0.129883 56.6752 0.398491 56.197 0.876709C55.7188 1.35493 55.4502 2.00363 55.4502 2.67993V12.6799C55.4655 13.3514 55.7392 13.9911 56.2141 14.4661C56.6891 14.941 57.3287 15.2145 58.0002 15.2297Z" fill="#2E3192"/>
<path d="M50.52 5.1897H25.6899V10.2898H50.52V5.1897Z" fill="#2E3192"/>
<path d="M20.1599 45.8796L18.1001 47.9397L33.3401 63.3499L63.1001 33.5898L61.04 31.5298L33.3401 59.2297L20.1599 45.8796Z" fill="#2E3192"/>
</g>
</svg>
