<svg width="76" height="71" viewBox="0 0 76 71" fill="none" xmlns="http://www.w3.org/2000/svg">
<path d="M69.1201 0.169922H65.3799V5.08984H69.1201C69.4601 5.08984 70.3096 6.0899 70.3096 7.6499V62.5801C70.2943 63.2516 70.0208 63.8913 69.5459 64.3662C69.071 64.8412 68.4313 65.1146 67.7598 65.1299H7.90039C7.22889 65.1146 6.58921 64.8412 6.11426 64.3662C5.63931 63.8913 5.36488 63.2516 5.34961 62.5801V20.23H70.1396V15.1299H5.34961V7.6499C5.34961 6.1099 6.03004 5.08984 6.54004 5.08984H10.2803V0.159668H6.54004C2.97004 0.159668 0.240234 3.5599 0.240234 7.6499V62.5801C0.261094 64.5592 1.0566 66.451 2.45703 67.8496C3.85746 69.2482 5.75136 70.0418 7.73047 70.0601H67.5898C69.5869 69.999 71.4907 69.2009 72.9346 67.8198C74.3784 66.4388 75.2604 64.5725 75.4102 62.5801V7.6499C75.4102 3.5699 72.5201 0.169922 69.1201 0.169922Z" fill="white"/>
</svg>
