<svg width="59" height="75" viewBox="0 0 59 75" fill="none" xmlns="http://www.w3.org/2000/svg">
<g opacity="0.8">
<path d="M0.299805 29.2C0.299805 23.4248 2.01241 17.7793 5.22095 12.9773C8.42948 8.17543 12.9898 4.43279 18.3254 2.22271C23.661 0.0126321 29.532 -0.565599 35.1963 0.56109C40.8605 1.68778 46.0635 4.46861 50.1472 8.5523C54.2309 12.636 57.012 17.839 58.1387 23.5032C59.2654 29.1675 58.6871 35.0387 56.4771 40.3743C54.267 45.7099 50.5243 50.2703 45.7224 53.4788C40.9205 56.6874 35.275 58.4 29.4998 58.4C21.7554 58.4 14.3284 55.3235 8.85229 49.8475C3.37623 44.3714 0.299805 36.9443 0.299805 29.2ZM56.1597 29.2C56.1597 23.9272 54.5962 18.7727 51.6667 14.3885C48.7373 10.0043 44.5736 6.58722 39.7021 4.56939C34.8307 2.55156 29.4701 2.02337 24.2986 3.05206C19.1271 4.08074 14.3767 6.61998 10.6482 10.3484C6.91973 14.0769 4.38073 18.8273 3.35205 23.9988C2.32337 29.1704 2.85131 34.5307 4.86914 39.4022C6.88697 44.2736 10.304 48.4376 14.6882 51.367C19.0724 54.2964 24.2269 55.8599 29.4998 55.8599C36.5704 55.8599 43.3516 53.051 48.3513 48.0513C53.351 43.0516 56.1597 36.2707 56.1597 29.2ZM28.2297 10.15H30.7698V30.46H15.5298V27.93H28.2297V10.15Z" fill="#2E3192"/>
<path d="M13.6594 65.66C13.6537 66.2841 13.4598 66.8918 13.103 67.4039C12.7461 67.916 12.2429 68.3084 11.6594 68.5299C11.0634 68.7571 10.4106 68.7885 9.79562 68.6195C9.18063 68.4504 8.63557 68.0898 8.23946 67.5899C7.95539 67.2145 7.76374 66.7773 7.67989 66.314C7.59604 65.8508 7.62234 65.3744 7.7568 64.9232C7.89126 64.472 8.13005 64.0587 8.45382 63.7169C8.77759 63.3751 9.1773 63.1141 9.62057 62.9554C10.0638 62.7967 10.5382 62.7444 11.0053 62.8031C11.4725 62.8617 11.9192 63.0295 12.3095 63.2928C12.6998 63.5561 13.0229 63.9077 13.2522 64.3189C13.4814 64.7301 13.6105 65.1895 13.6294 65.66C13.6294 65.8589 13.7084 66.0496 13.8491 66.1903C13.9897 66.3309 14.1804 66.41 14.3794 66.41C14.5783 66.41 14.7692 66.3309 14.9099 66.1903C15.0505 66.0496 15.1294 65.8589 15.1294 65.66C15.1239 64.7237 14.8343 63.811 14.2985 63.0431C13.7628 62.2751 13.0062 61.6883 12.1294 61.3599C11.2511 61.0534 10.2998 61.0252 9.40499 61.2794C8.51016 61.5335 7.71537 62.0574 7.12936 62.7799C6.5477 63.5057 6.19783 64.3897 6.12472 65.317C6.05161 66.2442 6.25872 67.1718 6.71944 67.9798C7.22103 68.8461 7.99536 69.522 8.92159 69.9017C9.84782 70.2813 10.8738 70.3435 11.8391 70.0785C12.8044 69.8134 13.6548 69.236 14.2573 68.4366C14.8598 67.6372 15.1805 66.661 15.1694 65.66C15.1694 65.4598 15.09 65.2676 14.9484 65.1261C14.8069 64.9845 14.6147 64.9049 14.4145 64.9049C14.2143 64.9049 14.0222 64.9845 13.8806 65.1261C13.739 65.2676 13.6594 65.4598 13.6594 65.66Z" fill="#2E3192"/>
<path d="M4.12984 74.7798C4.98049 73.9085 5.99589 73.215 7.1169 72.7395C8.23791 72.264 9.44219 72.0158 10.6599 72.0098C13.0867 72.0666 15.3978 73.0591 17.1101 74.7798C17.8201 75.4498 18.8799 74.38 18.1799 73.7C16.1753 71.7087 13.4845 70.5599 10.6599 70.4897C7.80202 70.514 5.06999 71.6682 3.06002 73.7C2.37002 74.38 3.42984 75.4498 4.12984 74.7798Z" fill="#2E3192"/>
<path d="M30.3896 65.66C30.3853 66.2844 30.192 66.8928 29.8349 67.4051C29.4779 67.9174 28.974 68.3096 28.3896 68.5299C27.795 68.7547 27.1444 68.785 26.5315 68.616C25.9186 68.4471 25.3752 68.0877 24.9797 67.5899C24.6927 67.2151 24.4983 66.7778 24.4121 66.3136C24.3259 65.8493 24.3505 65.3714 24.4839 64.9185C24.6173 64.4656 24.8556 64.0505 25.1797 63.7071C25.5037 63.3637 25.9042 63.1016 26.3486 62.9422C26.793 62.7828 27.2689 62.7305 27.7373 62.7896C28.2057 62.8487 28.6535 63.0175 29.0444 63.2823C29.4353 63.5471 29.758 63.9007 29.9866 64.3138C30.2151 64.7269 30.3432 65.1881 30.3598 65.66C30.3812 65.8453 30.4699 66.0161 30.6091 66.1402C30.7483 66.2643 30.9282 66.3328 31.1147 66.3328C31.3012 66.3328 31.4811 66.2643 31.6203 66.1402C31.7596 66.0161 31.8485 65.8453 31.8699 65.66C31.8644 64.7237 31.5746 63.811 31.0388 63.0431C30.5031 62.2751 29.7467 61.6883 28.8699 61.3599C27.9916 61.0534 27.0401 61.0252 26.1452 61.2794C25.2504 61.5335 24.4559 62.0574 23.8699 62.7799C23.2895 63.5063 22.94 64.39 22.8669 65.317C22.7938 66.2439 23.0003 67.1714 23.4597 67.9798C23.9364 68.7918 24.6528 69.4365 25.5105 69.825C26.3681 70.2136 27.325 70.3271 28.2497 70.15C29.2812 69.9328 30.207 69.3686 30.873 68.5516C31.539 67.7346 31.9048 66.7141 31.9097 65.66C31.9097 65.4584 31.8298 65.2652 31.6872 65.1226C31.5447 64.9801 31.3512 64.9 31.1496 64.9C30.9481 64.9 30.7548 64.9801 30.6123 65.1226C30.4698 65.2652 30.3896 65.4584 30.3896 65.66Z" fill="#2E3192"/>
<path d="M20.8696 74.7798C21.7225 73.9086 22.7395 73.2152 23.862 72.7397C24.9846 72.2643 26.1903 72.0162 27.4094 72.0098C29.8358 72.0687 32.1462 73.0608 33.8596 74.7798C34.5696 75.4498 35.6294 74.38 34.9294 73.7C32.9237 71.7104 30.2336 70.5619 27.4094 70.4897C24.5511 70.5119 21.8183 71.6664 19.8096 73.7C19.1096 74.38 20.1696 75.4498 20.8696 74.7798Z" fill="#2E3192"/>
<path d="M47.1396 65.6599C47.1353 66.2844 46.942 66.8927 46.5849 67.405C46.2279 67.9174 45.724 68.3095 45.1396 68.5298C44.5437 68.757 43.8909 68.7884 43.2759 68.6194C42.6609 68.4504 42.1158 68.0897 41.7197 67.5899C41.4356 67.2144 41.244 66.7773 41.1601 66.314C41.0763 65.8507 41.1026 65.3743 41.237 64.9231C41.3715 64.4719 41.6103 64.0586 41.9341 63.7168C42.2578 63.375 42.6576 63.1141 43.1008 62.9553C43.5441 62.7966 44.0184 62.7444 44.4856 62.803C44.9527 62.8616 45.3995 63.0294 45.7898 63.2927C46.1801 63.556 46.5031 63.9076 46.7324 64.3189C46.9617 64.7301 47.091 65.1895 47.1098 65.6599C47.1312 65.8452 47.2199 66.0161 47.3591 66.1402C47.4983 66.2642 47.6782 66.3328 47.8647 66.3328C48.0512 66.3328 48.2311 66.2642 48.3703 66.1402C48.5096 66.0161 48.5985 65.8452 48.6199 65.6599C48.6131 64.7239 48.3227 63.8118 47.7871 63.0442C47.2515 62.2766 46.496 61.6894 45.6199 61.3599C44.7419 61.0503 43.7895 61.0206 42.894 61.2749C41.9985 61.5292 41.204 62.055 40.6199 62.7798C40.0395 63.5062 39.69 64.39 39.6169 65.3169C39.5438 66.2438 39.7503 67.1713 40.2097 67.9798C40.6864 68.7917 41.4028 69.4364 42.2605 69.825C43.1181 70.2135 44.075 70.327 44.9997 70.1499C46.0312 69.9327 46.957 69.3685 47.623 68.5515C48.289 67.7345 48.6548 66.714 48.6597 65.6599C48.6597 65.4584 48.5798 65.2651 48.4372 65.1226C48.2947 64.98 48.1012 64.8999 47.8996 64.8999C47.6981 64.8999 47.5048 64.98 47.3623 65.1226C47.2198 65.2651 47.1396 65.4584 47.1396 65.6599Z" fill="#2E3192"/>
<path d="M37.6096 74.7798C38.4618 73.9077 39.4786 73.2138 40.6013 72.7383C41.724 72.2627 42.9301 72.0151 44.1494 72.0098C46.5758 72.0687 48.8862 73.0608 50.5996 74.7798C51.2996 75.4498 52.3694 74.38 51.6694 73.7C49.6625 71.7121 46.9732 70.5639 44.1494 70.4897C41.2911 70.5119 38.5583 71.6664 36.5495 73.7C35.8495 74.38 36.9196 75.4498 37.6096 74.7798Z" fill="#2E3192"/>
</g>
</svg>
