<svg width="76" height="52" viewBox="0 0 76 52" fill="none" xmlns="http://www.w3.org/2000/svg">
<g opacity="0.8">
<path d="M40.56 14.17C36.095 13.5355 31.5497 14.5099 27.7372 16.919C23.9248 19.3281 21.0936 23.0148 19.7499 27.3199C18.8808 30.1539 18.6893 33.1527 19.1911 36.0743C19.6928 38.9958 20.8737 41.7585 22.6386 44.1402C24.4035 46.5219 26.7032 48.4558 29.3522 49.7862C32.0012 51.1166 34.9255 51.8064 37.8898 51.7999H37.9999C41.5401 51.7861 45.0051 50.7776 47.9999 48.8897C51.802 46.5028 54.6362 42.8469 55.9999 38.5699C56.579 36.7357 56.8726 34.8234 56.87 32.8999C56.8512 28.3404 55.1932 23.9396 52.1989 20.501C49.2046 17.0624 45.0736 14.8155 40.56 14.17ZM51.1598 21.98C53.7243 25.0391 55.1392 28.8979 55.1598 32.8897C55.158 34.3918 54.9632 35.8875 54.58 37.3399H54.2699H53.81C53.55 37.3399 53.2799 37.3399 53.0199 37.3399H52.1899H51.55C51.4302 37.33 51.3097 37.33 51.1899 37.3399L50.4999 37.42H50.2099C49.5603 37.5214 48.9188 37.6683 48.29 37.8599L48.04 37.94L47.36 38.17L47.03 38.2999C46.83 38.3699 46.6399 38.4601 46.4399 38.5401L46.2499 38.6197C46.0499 38.1497 45.83 37.68 45.61 37.21C45.56 37.11 45.5099 36.9999 45.4499 36.8999C45.2199 36.4299 44.9799 35.9598 44.7199 35.4898L44.62 35.3101C44.38 34.8801 44.13 34.4498 43.86 34.0098L43.6999 33.75C43.4199 33.29 43.12 32.8299 42.81 32.3799L42.7299 32.2598C45.9109 29.155 48.7381 25.7075 51.1598 21.98ZM39.1598 49.5699L39.2199 49.3599C39.2899 49.0999 39.3699 48.8497 39.4599 48.5997L39.5199 48.4498C39.5899 48.2498 39.6599 48.0597 39.7399 47.8697C39.7724 47.7846 39.8092 47.7011 39.85 47.6197C39.91 47.4597 39.98 47.2999 40.05 47.1499C40.12 46.9999 40.1399 46.9697 40.1799 46.8897C40.2199 46.8097 40.3298 46.59 40.4098 46.44C40.4898 46.29 40.5 46.28 40.54 46.19L40.81 45.7398L40.9299 45.5298C41.1999 45.0998 41.49 44.6798 41.8 44.2798L41.9499 44.0997C42.0599 43.9697 42.17 43.8298 42.29 43.6998L42.4699 43.4898L42.8 43.1397L42.9999 42.94L43.36 42.5997L43.55 42.42L43.9999 42.0401L44.12 41.94C44.32 41.78 44.5199 41.6298 44.7199 41.4898L44.8898 41.3697L45.2599 41.1299C45.2599 41.1299 45.26 41.2298 45.31 41.2798C45.4 41.5398 45.48 41.8001 45.56 42.0601L45.6498 42.3697C45.7232 42.5763 45.7833 42.7867 45.83 43L45.9198 43.3301L46.07 43.96C46.0875 44.0646 46.1107 44.1681 46.1398 44.2701C46.1398 44.5301 46.25 44.7999 46.29 45.0699V45.19C46.34 45.5 46.3899 45.7999 46.4299 46.1099V46.3799C46.4299 46.5999 46.4799 46.8098 46.4999 47.0298V47.3599C46.4946 47.4565 46.4946 47.5534 46.4999 47.6499C44.1968 49.0087 41.6078 49.8098 38.9399 49.9898C39.1099 49.8598 39.1499 49.7099 39.1899 49.5699H39.1598ZM41.6 30.7999V30.75C41.27 30.31 40.93 29.87 40.6 29.44C40.52 29.34 40.44 29.2499 40.37 29.1499C40.01 28.7099 39.6399 28.2699 39.2599 27.8399L39.1799 27.75C38.8199 27.33 38.44 26.9198 38.06 26.5098L37.82 26.25L36.6 24.9898L36.5099 24.9097L36.6 24.8199C36.87 24.5599 37.1298 24.2901 37.3798 24.0201C37.6298 23.7401 37.87 23.4397 38.1 23.1397L38.2199 22.98C38.4399 22.69 38.64 22.3901 38.84 22.0801C38.84 22.0301 38.9099 21.9697 38.9499 21.9097C39.1499 21.5897 39.3399 21.2697 39.5199 20.9097V20.8497C39.6899 20.5297 39.8399 20.1997 39.9899 19.8497C40.0175 19.7948 40.041 19.7381 40.06 19.6797C40.21 19.3397 40.3399 18.9897 40.4599 18.6797C40.4877 18.6113 40.5112 18.5412 40.53 18.4698C40.65 18.1098 40.76 17.7499 40.86 17.3799V17.25C40.95 16.9 41.02 16.53 41.09 16.17C41.0854 16.1368 41.0854 16.103 41.09 16.0699C44.3985 16.7093 47.4453 18.3093 49.85 20.67C47.4962 24.3425 44.7388 27.7402 41.6298 30.7999H41.6ZM37.85 15.7198C38.36 15.7198 38.8498 15.7201 39.4098 15.7901V15.8999C39.3498 16.2399 39.2799 16.5733 39.1999 16.8999C39.1999 16.8999 39.1999 16.9 39.1999 16.96C39.1065 17.2867 39.0065 17.62 38.8998 17.96L38.84 18.1299C38.7333 18.4499 38.6132 18.7601 38.4799 19.0601C38.4799 19.1101 38.4798 19.17 38.4098 19.23C38.2698 19.54 38.1299 19.8397 37.9699 20.1397C37.8199 20.4297 37.6499 20.7198 37.4799 20.9898L37.3898 21.1397C37.2098 21.4097 37.03 21.6697 36.83 21.9297L36.7099 22.0899C36.5099 22.3499 36.3 22.5997 36.08 22.8497C36.0559 22.8788 36.029 22.9056 35.9999 22.9297C35.7899 23.1697 35.57 23.3899 35.34 23.6099L35.2699 23.67C33.2107 21.7389 31.0186 19.9547 28.7099 18.3301C31.4617 16.6184 34.639 15.7137 37.8798 15.7198H37.85ZM27.12 19.4297C29.4954 21.0472 31.742 22.8463 33.84 24.8101L33.7299 24.8897L33.35 25.1499L32.7499 25.5201L32.33 25.75L31.7299 26.0601L31.28 26.2598L30.6498 26.5201L30.1899 26.6797L29.53 26.8799L29.07 27.0098L28.36 27.1597L27.9098 27.2398C27.6398 27.2898 27.37 27.3099 27.1 27.3399L26.7199 27.3897C26.3199 27.3897 25.9099 27.44 25.4999 27.44C25.0899 27.44 24.7798 27.44 24.4198 27.44H24.08L23.33 27.3599L22.9399 27.2999L22.2099 27.17L21.84 27.0899H21.6799C22.7459 24.0726 24.6419 21.4173 27.1498 19.4297H27.12ZM21.12 28.6397L21.37 28.6998L21.81 28.7901C22.07 28.8501 22.33 28.89 22.59 28.94L23.04 29L23.87 29.0997H24.2599C24.6599 29.0997 25.0599 29.1499 25.4599 29.1499C25.8899 29.1499 26.2999 29.1497 26.7199 29.0997H26.82C27.22 29.0997 27.6099 29.0298 27.9899 28.9698H28.1498C28.5232 28.9098 28.8933 28.8398 29.2599 28.7598L29.4399 28.71C29.8015 28.6286 30.1587 28.5282 30.5099 28.4097L30.6799 28.3599C31.0299 28.2399 31.3799 28.1098 31.6799 27.9698L31.83 27.8999C32.18 27.7499 32.52 27.6 32.83 27.42H32.9198C33.2798 27.23 33.6198 27.0401 33.9198 26.8301C34.2598 26.6201 34.5798 26.3899 34.9198 26.1499H34.9699L35.08 26.25C35.5 26.67 35.91 27.0901 36.32 27.5201L36.54 27.7598C36.94 28.1865 37.3299 28.6165 37.7099 29.0499C37.7099 29.0499 37.7099 29.0499 37.7599 29.0499C38.1399 29.4999 38.5198 29.9499 38.8798 30.3999L39.09 30.6499C39.43 31.0899 39.77 31.52 40.09 31.96C40.1075 31.9971 40.131 32.031 40.1598 32.0601L39.85 32.3399L39.34 32.7901L38.7299 33.3101L38.2199 33.73L37.59 34.23L37.09 34.6197L36.4499 35.0899L35.9499 35.4498L35.3 35.8999L34.82 36.2198L34.1298 36.6597L33.6799 36.94L32.9299 37.3799L32.54 37.5997C32.19 37.7897 31.85 37.9697 31.54 38.1397L31.4299 38.1998C31.0499 38.3898 30.66 38.58 30.28 38.75L29.9399 38.8897C29.6699 39.0097 29.3998 39.13 29.1298 39.23L28.6899 39.3999L27.9699 39.6597L27.4899 39.8199L26.82 40.0298L26.32 40.17L25.6598 40.3399C25.4898 40.3899 25.3198 40.42 25.1498 40.46L24.4999 40.5997L23.9799 40.69L23.34 40.7901L22.81 40.8599H22.4699C21.1674 38.4117 20.4809 35.6828 20.4699 32.9097C20.5251 31.4613 20.7671 30.0261 21.1899 28.6397H21.12ZM23.53 42.48C23.91 42.4334 24.2898 42.3732 24.6698 42.2999H24.78L25.87 42.0699L26.29 41.96C26.55 41.89 26.81 41.83 27.07 41.75L27.55 41.6099L28.2699 41.3897L28.7699 41.21L29.4799 40.96L29.9799 40.7598L30.6799 40.4698L31.1799 40.25L31.8898 39.9097L32.37 39.6797L33.1298 39.2798L33.55 39.0601L34.55 38.5L34.7499 38.3799C35.1399 38.1399 35.5298 37.8997 35.9198 37.6397L36.28 37.3999C36.55 37.2199 36.82 37.0399 37.09 36.8399L37.54 36.5201L38.2599 35.9898L38.7299 35.6197L39.4198 35.0699L39.8998 34.6797L40.58 34.0997L41.06 33.6797L41.31 33.46C41.61 33.9 41.8898 34.3398 42.1598 34.7798C42.2224 34.8729 42.2793 34.9698 42.33 35.0699C42.6 35.5099 42.86 35.9499 43.1 36.3999L43.1598 36.5098C43.3898 36.9298 43.6 37.3501 43.8 37.7701C43.8526 37.8603 43.8992 37.9536 43.9399 38.0499C44.1499 38.4799 44.35 38.9199 44.53 39.3599C44.5262 39.3898 44.5262 39.4199 44.53 39.4498H44.4699L44.2099 39.6197L43.7499 39.92L43.4699 40.1299L43.05 40.4297L42.7699 40.6597L42.3898 40.98L42.11 41.23L41.7499 41.5699L41.4899 41.8301L41.1398 42.1998L40.8998 42.4698C40.7798 42.5998 40.67 42.7399 40.56 42.8799L40.35 43.1299C40.22 43.2999 40.0899 43.4699 39.9699 43.6499L39.83 43.8301L39.35 44.5499L39.2299 44.7598C39.1199 44.9398 39.0098 45.1201 38.9098 45.3101C38.8098 45.5001 38.8099 45.5099 38.7499 45.6099C38.6899 45.7099 38.5799 45.9297 38.4999 46.0997L38.35 46.4297C38.28 46.5897 38.1998 46.7397 38.1298 46.9097C38.0598 47.0797 38.0399 47.1398 37.9899 47.2598L37.81 47.7398C37.81 47.8598 37.7199 47.9899 37.6799 48.1099C37.6399 48.2299 37.5699 48.4399 37.5199 48.6099C37.4699 48.7799 37.4398 48.85 37.4098 48.98C37.3798 49.11 37.3099 49.32 37.2699 49.5C37.2299 49.68 37.1999 49.7397 37.1799 49.8697V49.9898C34.4875 49.8834 31.8573 49.1492 29.4994 47.8453C27.1415 46.5413 25.1213 44.7039 23.6 42.48H23.53ZM48.2299 46.5601V46.3697C48.2299 45.9497 48.13 45.5397 48.06 45.1197C48.0557 45.0664 48.0557 45.0133 48.06 44.96C47.98 44.5 47.88 44.0399 47.78 43.5699L47.6899 43.21C47.5999 42.82 47.4898 42.4198 47.3798 42.0298C47.3505 41.9483 47.3273 41.8647 47.31 41.7798C47.17 41.3198 47.02 40.8599 46.85 40.3999C46.8524 40.36 46.8524 40.3198 46.85 40.2798C46.9114 40.2458 46.9748 40.2159 47.04 40.19L47.55 39.9698L47.85 39.8497L48.36 39.67L48.6598 39.5801L49.2099 39.42L49.4899 39.3497L50.1498 39.21H50.32C50.6 39.1567 50.8798 39.1166 51.1598 39.0899H51.4399H52.0099H52.84H53.6498H53.9799C52.8128 42.0567 50.8469 44.6425 48.3 46.5601H48.2299Z" fill="#2E3192"/>
<path d="M17.09 26.1499C17.37 25.5199 17.68 24.8998 18 24.2998L16.76 23.1099L20.83 19.0601L21.25 19.4897C21.67 18.9797 22.11 18.49 22.56 18.02C20.56 15.95 19.24 14.6499 19.24 14.6499L19.1201 14.5098C18.6004 13.9937 17.9704 13.6021 17.2775 13.3647C16.5847 13.1274 15.847 13.0505 15.1201 13.1396C15.3463 12.1954 15.3213 11.2085 15.0476 10.2769C14.7739 9.34525 14.2611 8.50189 13.56 7.83008C12.68 6.90897 11.6062 6.19511 10.4162 5.74023C9.22628 5.28536 7.94994 5.1005 6.67989 5.19971C3.13989 4.81971 1.90987 0.439941 1.90987 0.439941C-3.82013 8.55994 5.26998 15.8896 5.26998 15.8896C5.99655 16.5825 6.8853 17.082 7.85494 17.3423C8.82458 17.6026 9.84414 17.6157 10.82 17.3799C10.7279 18.107 10.8033 18.8452 11.0407 19.5386C11.2782 20.2319 11.6713 20.862 12.1899 21.3799C12.2342 21.4257 12.2811 21.469 12.33 21.5098C12.33 21.5098 14.24 23.4099 17.09 26.1499ZM13.6001 15.8999C14.157 15.3739 14.8938 15.0806 15.6599 15.0806C16.4259 15.0806 17.163 15.3739 17.7199 15.8999L19.2199 17.4097L19.5 17.6899L15.3899 21.7798L15.1201 21.5098L13.59 20C13.3209 19.7406 13.1061 19.4298 12.9585 19.0864C12.8108 18.743 12.733 18.3738 12.7299 18C12.7333 17.213 13.0458 16.4587 13.6001 15.8999ZM12.26 14.54C9.68997 17.11 6.52999 14.4399 6.52999 14.4399C6.52999 14.4399 1.92989 10.4999 1.92989 5.87988C1.93091 5.46084 1.96782 5.04266 2.04 4.62988C3.24121 6.00125 4.90183 6.88646 6.70992 7.11963C7.73081 7.04932 8.75495 7.19992 9.71261 7.56055C10.6703 7.92118 11.539 8.48372 12.26 9.20996C12.6216 9.55408 12.9092 9.96816 13.1052 10.4272C13.3012 10.8863 13.4014 11.3807 13.3999 11.8799C13.3972 12.3769 13.2951 12.8683 13.0993 13.3252C12.9035 13.7821 12.6181 14.1953 12.26 14.54Z" fill="#2E3192"/>
<path d="M62.73 21.52C62.73 21.47 62.8201 21.4396 62.8601 21.3896C63.378 20.8709 63.7712 20.2417 64.0103 19.5488C64.2493 18.8559 64.3279 18.1174 64.24 17.3896C65.2159 17.6255 66.2354 17.6129 67.2051 17.3525C68.1747 17.0922 69.0635 16.5928 69.79 15.8999C69.79 15.8999 78.8799 8.56971 73.1499 0.449707C73.1499 0.449707 71.9201 4.82996 68.3701 5.20996C67.1001 5.11075 65.8237 5.29513 64.6338 5.75C63.4439 6.20487 62.37 6.91874 61.49 7.83984C60.7923 8.51397 60.2818 9.35772 60.0083 10.2886C59.7348 11.2194 59.7077 12.2055 59.9299 13.1499C59.2109 13.067 58.4826 13.1471 57.7988 13.3843C57.115 13.6214 56.4933 14.0097 55.98 14.52C55.9316 14.5617 55.8881 14.6083 55.8501 14.6597C55.8501 14.6597 54.54 15.9598 52.52 18.0298C52.97 18.5098 53.4101 19.03 53.8301 19.5L54.25 19.0698L58.3201 23.1196L57.0801 24.3101C57.4101 24.9101 57.71 25.5297 58 26.1597C60.84 23.4097 62.73 21.52 62.73 21.52ZM62.3501 17.9897C62.3431 18.7427 62.0373 19.4621 61.5 19.9897L59.96 21.5C59.88 21.58 59.7799 21.69 59.6899 21.77L55.5901 17.6797L55.8601 17.3999L57.3601 15.8896C57.917 15.3636 58.6539 15.0708 59.4199 15.0708C60.186 15.0708 60.9231 15.3636 61.48 15.8896C62.0342 16.4484 62.3468 17.2027 62.3501 17.9897ZM61.6799 11.8799C61.6807 11.3811 61.7822 10.8875 61.978 10.4287C62.1739 9.96995 62.4603 9.55551 62.8201 9.20996C63.5414 8.48426 64.4101 7.92212 65.3677 7.56152C66.3252 7.20093 67.3493 7.04998 68.3701 7.11963C70.1782 6.88646 71.8388 6.00125 73.04 4.62988C73.1205 5.04166 73.1606 5.46031 73.1599 5.87988C73.1599 10.4999 68.6001 14.3999 68.5601 14.4399C68.5201 14.4799 65.3901 17.11 62.8201 14.54C62.462 14.1953 62.1765 13.7821 61.9807 13.3252C61.7849 12.8683 61.6826 12.3769 61.6799 11.8799Z" fill="#2E3192"/>
</g>
</svg>
