<svg width="77" height="76" viewBox="0 0 77 76" fill="none" xmlns="http://www.w3.org/2000/svg">
<g opacity="0.8">
<path d="M45.7898 61.96C45.6615 61.949 45.5361 61.915 45.4197 61.8599L38.2097 56.6399L31.0098 61.8599C30.9001 61.9374 30.7691 61.979 30.6348 61.979C30.5005 61.979 30.3695 61.9374 30.2598 61.8599C30.1508 61.784 30.0701 61.6741 30.0303 61.5474C29.9905 61.4207 29.9938 61.2845 30.0398 61.1599L32.7798 52.7197L25.5798 47.4998C25.4709 47.4239 25.3901 47.3142 25.3503 47.1875C25.3105 47.0608 25.3139 46.9244 25.3599 46.7998C25.4014 46.6758 25.4805 46.5678 25.5862 46.4907C25.6919 46.4137 25.8189 46.3714 25.9497 46.3699H34.8298L37.5698 37.93C37.6113 37.8059 37.6904 37.6977 37.7961 37.6206C37.9019 37.5436 38.0288 37.5013 38.1597 37.4998C38.2924 37.493 38.4236 37.5321 38.531 37.6104C38.6384 37.6886 38.7156 37.8015 38.7498 37.93L41.4897 46.3699H50.3699C50.5004 46.3726 50.6268 46.4157 50.7317 46.4934C50.8366 46.5711 50.9147 46.6797 50.9553 46.8037C50.9959 46.9278 50.9971 47.0613 50.9585 47.1861C50.9199 47.3108 50.8434 47.4204 50.7397 47.4998L43.5398 52.7197L46.2798 61.1599C46.3294 61.2841 46.3345 61.4215 46.2944 61.5491C46.2543 61.6767 46.1715 61.7864 46.0598 61.8599C46.0598 61.9099 45.8998 61.96 45.7898 61.96ZM38.2097 55.1399C38.3415 55.1495 38.4704 55.1833 38.5898 55.2398L44.5898 59.5398L42.3298 52.5398C42.2829 52.4163 42.2779 52.2809 42.3159 52.1543C42.3539 52.0277 42.4326 51.9171 42.5398 51.8399L48.5398 47.5398H41.1797C41.047 47.5466 40.916 47.5075 40.8086 47.4292C40.7012 47.3509 40.624 47.2383 40.5898 47.1099L38.3298 40.1099L36.0698 47.1099C36.0283 47.2339 35.9492 47.3419 35.8435 47.419C35.7378 47.496 35.6105 47.5383 35.4797 47.5398H27.9998L33.9998 51.8399C34.1044 51.9193 34.181 52.0297 34.2187 52.1555C34.2565 52.2813 34.2534 52.4159 34.2097 52.5398L31.9497 59.5398L37.9497 55.2398C38.0449 55.1772 38.1559 55.1427 38.2698 55.1399H38.2097Z" fill="#2E3192"/>
<path d="M28.4199 39.6399C28.4199 39.6399 19.8499 28.7299 14.4199 31.8499V35.7398C14.3999 29.5098 28.4199 39.6399 28.4199 39.6399Z" fill="#2E3192"/>
<path d="M45.5498 39.6399C45.5498 39.6399 54.1098 28.7299 59.5498 31.8499V35.7398C59.5598 29.5098 45.5498 39.6399 45.5498 39.6399Z" fill="#2E3192"/>
<path d="M69.8298 5.63989H66.0898V10.5698H69.8298C70.1698 10.5698 71.0198 11.5699 71.0198 13.1299V68.0898C71.0045 68.7613 70.7308 69.401 70.2559 69.876C69.7809 70.3509 69.1412 70.6246 68.4697 70.6399H8.60986C7.93836 70.6246 7.29843 70.3509 6.82349 69.876C6.34854 69.401 6.07508 68.7613 6.05981 68.0898V25.7397H70.8499V20.6399H6.05981V13.0898C6.05981 11.5498 6.73976 10.5298 7.24976 10.5298H10.9998V5.59985H7.25977C3.68977 5.59985 0.969727 8.99984 0.969727 13.0898V68.0898C0.987984 70.068 1.78183 71.9601 3.18066 73.3589C4.5795 74.7577 6.47154 75.5516 8.44971 75.5698H68.3098C70.3086 75.5112 72.215 74.7143 73.6609 73.333C75.1068 71.9517 75.9897 70.0839 76.1396 68.0898V13.0898C76.1296 9.08984 73.2398 5.63989 69.8298 5.63989Z" fill="#2E3192"/>
<path d="M18.4695 15.6799C19.134 15.6298 19.7574 15.339 20.2231 14.8623C20.6888 14.3856 20.9649 13.7554 20.9995 13.0898V3.08984C20.9995 2.41354 20.7309 1.76484 20.2527 1.28662C19.7745 0.808403 19.1258 0.539795 18.4495 0.539795C17.7732 0.539795 17.1247 0.808403 16.6465 1.28662C16.1683 1.76484 15.8994 2.41354 15.8994 3.08984V13.0898C15.9046 13.7717 16.1764 14.4244 16.6567 14.9084C17.137 15.3925 17.7877 15.6695 18.4695 15.6799Z" fill="#2E3192"/>
<path d="M58.2698 15.6799C58.9413 15.6647 59.581 15.391 60.0559 14.916C60.5309 14.4411 60.8046 13.8014 60.8198 13.1299V3.12988C60.8198 2.45358 60.5512 1.80488 60.073 1.32666C59.5948 0.848442 58.9461 0.579834 58.2698 0.579834C57.5935 0.579834 56.9448 0.848442 56.4666 1.32666C55.9883 1.80488 55.7197 2.45358 55.7197 3.12988V13.1299C55.735 13.8014 56.0087 14.4411 56.4836 14.916C56.9586 15.391 57.5983 15.6647 58.2698 15.6799Z" fill="#2E3192"/>
<path d="M50.79 5.63965H25.96V10.7397H50.79V5.63965Z" fill="#2E3192"/>
</g>
</svg>
