<svg width="76" height="76" viewBox="0 0 76 76" fill="none" xmlns="http://www.w3.org/2000/svg">
<g opacity="0.8">
<path d="M47.5498 0.0898438H1.5498C1.22889 0.0898438 0.921011 0.217417 0.694092 0.444336C0.467173 0.671255 0.339844 0.978893 0.339844 1.2998V73.8799C0.339844 74.2008 0.467173 74.5084 0.694092 74.7354C0.921011 74.9623 1.22889 75.0898 1.5498 75.0898H47.5498C47.8707 75.0898 48.1784 74.9623 48.4053 74.7354C48.6322 74.5084 48.7598 74.2008 48.7598 73.8799V1.2998C48.7598 0.978893 48.6322 0.671255 48.4053 0.444336C48.1784 0.217417 47.8707 0.0898438 47.5498 0.0898438ZM45.5498 71.8499H3.64966V3.32983H45.5498V71.8499Z" fill="#2E3192"/>
<path d="M8.84009 30.0898H13.6799C14.0008 30.0898 14.3087 29.9623 14.5356 29.7354C14.7626 29.5084 14.8899 29.2008 14.8899 28.8799V24.0898C14.8899 23.7689 14.7626 23.461 14.5356 23.2341C14.3087 23.0072 14.0008 22.8799 13.6799 22.8799H8.84009C8.51918 22.8799 8.21129 23.0072 7.98438 23.2341C7.75746 23.461 7.62988 23.7689 7.62988 24.0898V28.9299C7.64521 29.2413 7.77914 29.5348 8.00415 29.7505C8.22916 29.9662 8.52839 30.0877 8.84009 30.0898ZM10.05 25.2498H12.47V27.6699H10.05V25.2498Z" fill="#2E3192"/>
<path d="M8.84009 39.7798H13.6799C14.0008 39.7798 14.3087 39.6525 14.5356 39.4255C14.7626 39.1986 14.8899 38.8907 14.8899 38.5698V33.7297C14.8873 33.4106 14.7586 33.1054 14.532 32.8806C14.3053 32.6559 13.9991 32.5298 13.6799 32.5298H8.84009C8.5209 32.5298 8.21467 32.6559 7.98804 32.8806C7.7614 33.1054 7.63252 33.4106 7.62988 33.7297V38.5698C7.62988 38.8907 7.75746 39.1986 7.98438 39.4255C8.21129 39.6525 8.51918 39.7798 8.84009 39.7798ZM10.05 34.9399H12.47V37.3599H10.05V34.9399Z" fill="#2E3192"/>
<path d="M8.84009 49.46H13.6799C14.0008 49.46 14.3087 49.3324 14.5356 49.1055C14.7626 48.8785 14.8899 48.5707 14.8899 48.2498V43.4099C14.8899 43.089 14.7626 42.7811 14.5356 42.5542C14.3087 42.3273 14.0008 42.2 13.6799 42.2H8.84009C8.51918 42.2 8.21129 42.3273 7.98438 42.5542C7.75746 42.7811 7.62988 43.089 7.62988 43.4099V48.2498C7.62988 48.5707 7.75746 48.8785 7.98438 49.1055C8.21129 49.3324 8.51918 49.46 8.84009 49.46ZM10.05 44.6199H12.47V47.0898H10.05V44.6199Z" fill="#2E3192"/>
<path d="M8.84009 59.1399H13.6799C14.0008 59.1399 14.3087 59.0123 14.5356 58.7854C14.7626 58.5585 14.8899 58.2508 14.8899 57.9299V53.0898C14.8899 52.7689 14.7626 52.461 14.5356 52.2341C14.3087 52.0072 14.0008 51.8799 13.6799 51.8799H8.84009C8.51918 51.8799 8.21129 52.0072 7.98438 52.2341C7.75746 52.461 7.62988 52.7689 7.62988 53.0898V57.9299C7.62988 58.2508 7.75746 58.5585 7.98438 58.7854C8.21129 59.0123 8.51918 59.1399 8.84009 59.1399ZM10.05 54.2998H12.47V56.7197H10.05V54.2998Z" fill="#2E3192"/>
<path d="M36.6597 9.0498H12.4697V11.4697H36.6597V9.0498Z" fill="#2E3192"/>
<path d="M30.6196 13.8896H17.3096V16.3098H30.6196V13.8896Z" fill="#2E3192"/>
<path d="M41.4995 25.2598H19.7295V27.6797H41.4995V25.2598Z" fill="#2E3192"/>
<path d="M41.4995 34.9397H19.7295V37.3599H41.4995V34.9397Z" fill="#2E3192"/>
<path d="M41.4995 44.6199H19.7295V47.0398H41.4995V44.6199Z" fill="#2E3192"/>
<path d="M41.4995 54.2998H19.7295V56.7197H41.4995V54.2998Z" fill="#2E3192"/>
<path d="M59.5996 8.20996C59.5254 7.9599 59.3724 7.74049 59.1633 7.58447C58.9543 7.42846 58.7003 7.34399 58.4395 7.34399C58.1786 7.34399 57.9249 7.42846 57.7158 7.58447C57.5068 7.74049 57.3537 7.9599 57.2795 8.20996L53.6494 20.3098C53.6181 20.4205 53.6015 20.5349 53.5996 20.6499V73.8799C53.5996 74.2008 53.7269 74.5084 53.9539 74.7354C54.1808 74.9623 54.4887 75.0898 54.8096 75.0898H62.0696C62.3905 75.0898 62.6981 74.9623 62.925 74.7354C63.152 74.5084 63.2795 74.2008 63.2795 73.8799V20.6499C63.2776 20.5349 63.2608 20.4205 63.2295 20.3098L59.5996 8.20996ZM58.4395 12.7698L60.4395 19.4399H56.4395L58.4395 12.7698ZM60.8596 72.6699H55.9995V67.8298H60.8396L60.8596 72.6699ZM60.8596 65.4099H55.9995V21.8599H60.8396L60.8596 65.4099Z" fill="#2E3192"/>
<path d="M74.1697 50.8999V12.1899C74.1708 12.0354 74.1403 11.882 74.0798 11.7398L71.6597 5.68995C71.5711 5.46528 71.4169 5.27256 71.217 5.13697C71.0172 5.00138 70.7813 4.92922 70.5398 4.92994C70.2972 4.92993 70.0602 5.00208 69.8589 5.13746C69.6576 5.27283 69.5011 5.46528 69.4097 5.68995L66.9897 11.7398C66.9373 11.884 66.9102 12.0365 66.9097 12.1899V50.8999C66.5888 50.8999 66.2811 51.0272 66.0542 51.2542C65.8273 51.4811 65.6997 51.789 65.6997 52.1099V66.6199C65.6997 66.9408 65.8273 67.2484 66.0542 67.4753C66.2811 67.7023 66.5888 67.8298 66.9097 67.8298V73.8799C66.9097 74.2008 67.0372 74.5084 67.2642 74.7354C67.4911 74.9623 67.799 75.0899 68.1199 75.0899H72.9998C73.1587 75.0899 73.3161 75.0586 73.4629 74.9978C73.6097 74.937 73.7431 74.8477 73.8555 74.7354C73.9678 74.623 74.0569 74.4896 74.1177 74.3428C74.1785 74.196 74.2097 74.0388 74.2097 73.8799V67.8298C74.5306 67.8298 74.8385 67.7023 75.0654 67.4753C75.2923 67.2484 75.4197 66.9408 75.4197 66.6199V52.0898C75.4171 51.9292 75.3826 51.7707 75.3181 51.6235C75.2536 51.4764 75.1605 51.3437 75.0442 51.2329C74.9278 51.1221 74.7905 51.0354 74.6404 50.9783C74.4902 50.9211 74.3302 50.8946 74.1697 50.8999ZM70.5398 9.3899L71.6497 12.1899H69.4197L70.5398 9.3899ZM69.3298 14.6099H71.7498V50.8999H69.3298V14.6099ZM71.7498 72.6699H69.3298V67.8298H71.7498V72.6699ZM72.9597 65.4099H68.1199V53.3198H72.9998L72.9597 65.4099Z" fill="#2E3192"/>
</g>
</svg>
