<svg width="54" height="79" viewBox="0 0 54 79" fill="none" xmlns="http://www.w3.org/2000/svg">
<path d="M27.8701 2.44952C35.4568 2.44952 41.3271 4.24322 45.4805 7.82989C49.6338 11.4166 51.7038 16.2031 51.6904 22.1898C51.7604 25.8807 50.8418 29.523 49.0303 32.7396C46.7809 36.3585 43.9762 39.6013 40.7197 42.3494C39.2597 43.6794 38.0403 44.8394 37.0703 45.8494C36.1636 46.7617 35.3556 47.7673 34.6602 48.8494C34.0602 49.8036 33.6047 50.8417 33.3096 51.9295C33.0086 53.0949 32.7981 54.282 32.6797 55.4798H20.25C20.3554 53.7989 20.5823 52.1278 20.9297 50.4798C21.2317 49.0772 21.6881 47.7119 22.29 46.4095C22.9109 45.0696 23.6614 43.7935 24.5303 42.5994C25.5383 41.2094 26.6191 39.8741 27.7695 38.5994C29.3695 36.7928 30.7265 35.1899 31.8398 33.7899C32.8319 32.5769 33.7247 31.2857 34.5098 29.9295C35.1291 28.8403 35.6191 27.6827 35.9697 26.4798C36.2832 25.3566 36.442 24.1957 36.4404 23.0296C36.4404 19.8963 35.64 17.4765 34.04 15.7698C32.43 14.0698 30.0397 13.2098 26.9297 13.2098C25.5659 13.1445 24.2045 13.3794 22.9414 13.8978C21.6783 14.4161 20.5449 15.2053 19.6201 16.2098C17.8068 18.2098 16.8068 21.3096 16.6201 25.5096H2C2.08352 22.1998 2.79251 18.9356 4.08984 15.8895C5.2817 13.1103 7.06244 10.623 9.30957 8.59942C11.6668 6.51924 14.4233 4.94089 17.4102 3.95977C20.789 2.88018 24.3239 2.36963 27.8701 2.44952ZM26.5195 61.1497C27.6115 61.1067 28.7015 61.2837 29.7236 61.6702C30.7458 62.0568 31.6795 62.6449 32.4697 63.3997C33.9483 65.0088 34.7695 67.1143 34.7695 69.2996C34.7695 71.4849 33.9483 73.5904 32.4697 75.1995C31.6795 75.9543 30.7458 76.5425 29.7236 76.929C28.7015 77.3155 27.6115 77.4925 26.5195 77.4495C25.4432 77.4876 24.3705 77.3078 23.3652 76.9212C22.36 76.5346 21.4434 75.949 20.6699 75.1995C19.1914 73.5904 18.3711 71.4849 18.3711 69.2996C18.3711 67.1143 19.1914 65.0088 20.6699 63.3997C21.4434 62.6502 22.36 62.0647 23.3652 61.678C24.3705 61.2914 25.4432 61.1117 26.5195 61.1497Z" stroke="white" stroke-width="3" stroke-miterlimit="10"/>
</svg>
