<svg width="75" height="82" viewBox="0 0 75 82" fill="none" xmlns="http://www.w3.org/2000/svg">
<g opacity="0.8">
<path d="M29.4502 79.5397L23.0903 12.3698C23.0573 12.0302 23.0916 11.6873 23.1914 11.361C23.2912 11.0347 23.4547 10.7314 23.6721 10.4684C23.8896 10.2055 24.1568 9.9879 24.4585 9.82854C24.7602 9.66917 25.0904 9.57105 25.4302 9.53972L37.5403 8.38982C38.2251 8.32845 38.9064 8.5398 39.4363 8.97795C39.9662 9.4161 40.302 10.0455 40.3704 10.7297L46.7202 77.8998C46.7533 78.2387 46.7193 78.5807 46.6201 78.9064C46.5209 79.2321 46.3585 79.5349 46.1421 79.7978C45.9257 80.0606 45.6595 80.2783 45.3589 80.4382C45.0583 80.5981 44.729 80.6971 44.3901 80.7297L32.2703 81.8798C31.5865 81.9411 30.9062 81.7293 30.3779 81.2909C29.8496 80.8526 29.5161 80.223 29.4502 79.5397ZM25.8801 12.2997L32.2002 79.0798L43.9302 77.9697L37.6103 11.1899L25.8801 12.2997Z" fill="#2E3192"/>
<path d="M45.2901 79.99L38.8501 11.9101C38.7973 11.3452 38.9709 10.7823 39.3328 10.3454C39.6947 9.9085 40.2152 9.63325 40.7801 9.58004L53.7801 8.35006C54.06 8.32253 54.3426 8.35078 54.6116 8.43307C54.8806 8.51536 55.1306 8.65011 55.3472 8.82955C55.5638 9.00899 55.7429 9.22951 55.8738 9.47848C56.0047 9.72745 56.0851 9.99982 56.1101 10.28L62.5501 78.3601C62.6031 78.9234 62.4309 79.4847 62.0711 79.9213C61.7113 80.358 61.193 80.6345 60.6299 80.6901L47.6299 81.9201C47.064 81.9731 46.5001 81.7996 46.0616 81.438C45.6231 81.0763 45.3458 80.5556 45.2901 79.99ZM41.69 12.3L48 79.09L59.72 77.9799L53.3999 11.2002L41.69 12.3Z" fill="#2E3192"/>
<path d="M60.9999 79.3402L54.6798 12.5601C54.6213 11.8308 54.8517 11.1078 55.3212 10.5467C55.7907 9.98557 56.4617 9.63122 57.1899 9.56014L65.6298 8.76009C66.3601 8.70431 67.0834 8.93696 67.6442 9.40804C68.205 9.87912 68.5587 10.5512 68.6298 11.2801L74.9499 78.0601C75.0056 78.7904 74.773 79.5135 74.3019 80.0743C73.8308 80.6351 73.1588 80.989 72.4298 81.0601L63.9999 81.8602C63.269 81.9186 62.5445 81.687 61.9831 81.2154C61.4217 80.7438 61.0685 80.0701 60.9999 79.3402ZM57.4499 12.3402L63.7699 79.1202L72.2099 78.3201L65.8898 11.5401L57.4499 12.3402Z" fill="#2E3192"/>
<path d="M23.1902 2.52993C23.1638 2.24014 23.0806 1.95858 22.9451 1.70107C22.8096 1.44357 22.6246 1.21527 22.4006 1.02944C22.1767 0.843618 21.9182 0.703771 21.6401 0.618065C21.3621 0.53236 21.07 0.502402 20.7803 0.52993L2.04029 2.29995C1.45606 2.35572 0.91776 2.64057 0.542971 3.09219C0.168181 3.54381 -0.0125994 4.12561 0.0402852 4.71011L7.16016 79.9101C7.18521 80.2003 7.26775 80.4827 7.40283 80.7409C7.53792 80.999 7.72306 81.2277 7.94727 81.4137C8.17148 81.5998 8.43036 81.7394 8.70899 81.8246C8.98761 81.9098 9.28039 81.9389 9.57031 81.9101L28.3103 80.14C28.8945 80.0843 29.4328 79.7994 29.8076 79.3478C30.1824 78.8962 30.3632 78.3144 30.3103 77.7299L23.1902 2.52993ZM26.3103 65.06L8.72022 66.6601L4.72022 24.85L22.3103 23.2499L26.3103 65.06ZM20.4702 3.37002L22.0903 20.4799L4.50025 22.08L2.88013 5.07998L20.4702 3.37002ZM9.89014 79.09L8.98023 69.4401L26.5703 67.85L27.4802 77.4301L9.89014 79.09Z" fill="#2E3192"/>
</g>
</svg>
