<svg width="79" height="76" viewBox="0 0 79 76" fill="none" xmlns="http://www.w3.org/2000/svg">
<path d="M55.8301 53.04L71.2002 37.6699L55.8301 22.29L59.5703 18.5498L78.8896 37.6699L59.5703 56.7798L55.8301 53.04Z" fill="white"/>
<path d="M74.9404 34.7598V40.5698H14.6904V34.7598H74.9404Z" fill="white"/>
<path d="M0.769531 66.3398V8.79004C0.782656 6.47875 1.70744 4.2657 3.3418 2.63135C4.97615 0.996992 7.18871 0.0731838 9.5 0.0600586H40.5C42.8113 0.0731838 45.0238 0.996992 46.6582 2.63135C48.2926 4.2657 49.2173 6.47875 49.2305 8.79004V28.9399H43.4102V8.79004C43.4198 8.40527 43.3508 8.02244 43.208 7.66504C43.0652 7.30764 42.8513 6.98309 42.5791 6.71094C42.3069 6.43878 41.9824 6.22438 41.625 6.08154C41.2676 5.9387 40.8848 5.87028 40.5 5.87988H9.5C9.11523 5.87028 8.7324 5.9387 8.375 6.08154C8.0176 6.22438 7.69306 6.43878 7.4209 6.71094C7.14874 6.98309 6.93483 7.30764 6.79199 7.66504C6.64915 8.02244 6.58024 8.40527 6.58984 8.79004V66.3398C6.58024 66.7246 6.64915 67.1074 6.79199 67.4648C6.93483 67.8222 7.14874 68.1468 7.4209 68.4189C7.69306 68.6911 8.0176 68.905 8.375 69.0479C8.7324 69.1907 9.11523 69.2596 9.5 69.25H40.5C40.8848 69.2596 41.2676 69.1907 41.625 69.0479C41.9824 68.905 42.3069 68.6911 42.5791 68.4189C42.8513 68.1468 43.0652 67.8222 43.208 67.4648C43.3508 67.1074 43.4198 66.7246 43.4102 66.3398V46.1899H49.2305V66.3398C49.2147 68.6494 48.2893 70.8595 46.6553 72.4917C45.0212 74.1239 42.8096 75.047 40.5 75.0601H9.5C7.19043 75.047 4.9788 74.1239 3.34473 72.4917C1.71065 70.8595 0.785277 68.6494 0.769531 66.3398Z" fill="white"/>
</svg>
