<svg width="79" height="69" viewBox="0 0 79 69" fill="none" xmlns="http://www.w3.org/2000/svg">
<g opacity="0.8">
<path d="M72.7097 0.0898529H5.65967C4.20709 0.0924963 2.81497 0.670636 1.78784 1.69776C0.760715 2.72489 0.182331 4.11726 0.179688 5.56983V47.5698C0.182331 49.0224 0.760715 50.4148 1.78784 51.4419C2.81497 52.469 4.20709 53.0472 5.65967 53.0498H13.6597L20.2598 68.5899L24.5798 53.0498H72.7297C74.1814 53.0472 75.5726 52.4686 76.5981 51.4412C77.6237 50.4138 78.1997 49.0215 78.1997 47.5698V5.56983C78.1997 4.84935 78.0578 4.13598 77.7817 3.47047C77.5057 2.80495 77.101 2.20041 76.5911 1.69142C76.0811 1.18242 75.4758 0.778967 74.8098 0.50416C74.1438 0.229352 73.4302 0.0885381 72.7097 0.0898529ZM75.1797 47.6099C75.1797 48.2659 74.92 48.8951 74.457 49.3599C73.9941 49.8247 73.3657 50.0872 72.7097 50.0899H22.2798L19.6497 59.5498L15.6497 50.0899H5.64966C4.99192 50.0899 4.36133 49.8286 3.89624 49.3635C3.43115 48.8984 3.16968 48.2676 3.16968 47.6099V5.60987C3.16968 4.95214 3.43115 4.3213 3.89624 3.85621C4.36133 3.39112 4.99192 3.12989 5.64966 3.12989H72.6997C73.3557 3.13254 73.9841 3.39507 74.447 3.85987C74.91 4.32468 75.1697 4.95386 75.1697 5.60987L75.1797 47.6099Z" fill="#2E3192"/>
<path d="M66.1797 12.5898H9.67969V15.0898H66.1797V12.5898Z" fill="#2E3192"/>
<path d="M66.1797 18.5898H9.67969V21.0898H66.1797V18.5898Z" fill="#2E3192"/>
<path d="M54.1797 24.5898H9.67969V27.0898H54.1797V24.5898Z" fill="#2E3192"/>
</g>
</svg>
