<svg width="81" height="76" viewBox="0 0 81 76" fill="none" xmlns="http://www.w3.org/2000/svg">
<g opacity="0.8">
<path d="M80.7998 66.2598C65.6298 66.2598 63.6296 52.0899 61.6296 38.4199C59.4696 23.5899 57.4698 9.75977 40.7998 9.75977C24.1298 9.75977 22.1297 23.7599 19.9697 38.4199C17.9697 52.0899 15.9698 66.2598 0.799805 66.2598V61.9199C11.4698 61.9199 13.4696 52.9199 15.6296 37.9199C17.6296 23.4199 20.2998 5.41992 40.7998 5.41992C61.2998 5.41992 63.9697 23.4199 65.9697 37.9199C68.1297 52.9199 70.1298 61.9199 80.7998 61.9199V66.2598Z" fill="#2E3192"/>
<path d="M40.8 75.5898C37.7082 75.5793 34.7461 74.3464 32.5598 72.1602C30.3735 69.9739 29.1404 67.0118 29.1299 63.9199H33.47C33.434 64.8834 33.5927 65.8442 33.9365 66.7449C34.2804 67.6456 34.8023 68.4675 35.4712 69.1619C36.1401 69.8562 36.9421 70.4086 37.8293 70.7859C38.7166 71.1631 39.6709 71.3577 40.635 71.3577C41.5991 71.3577 42.5534 71.1631 43.4407 70.7859C44.3279 70.4086 45.1299 69.8562 45.7988 69.1619C46.4677 68.4675 46.9896 67.6456 47.3335 66.7449C47.6774 65.8442 47.836 64.8834 47.8 63.9199H52.1299C52.191 65.4401 51.9423 66.9566 51.3989 68.3777C50.8556 69.7987 50.029 71.0945 48.9692 72.186C47.9095 73.2776 46.6387 74.1424 45.2344 74.7275C43.83 75.3127 42.3214 75.606 40.8 75.5898Z" fill="#2E3192"/>
<path d="M0.799805 61.7498H80.7998V66.4197H0.799805V61.7498Z" fill="#2E3192"/>
<path d="M45.47 5.25978C45.47 7.91978 43.3 8.75978 40.8 8.75978C38.3 8.75978 36.1299 7.75978 36.1299 5.25978C36.1579 4.03001 36.659 2.85834 37.5288 1.98854C38.3986 1.11873 39.5703 0.617843 40.8 0.589855C41.4137 0.588536 42.0214 0.708415 42.5886 0.942638C43.1558 1.17686 43.6713 1.52093 44.1052 1.95484C44.5391 2.38876 44.883 2.90402 45.1172 3.4712C45.3514 4.03839 45.4713 4.64613 45.47 5.25978Z" fill="#2E3192"/>
</g>
</svg>
