<svg width="40" height="76" viewBox="0 0 40 76" fill="none" xmlns="http://www.w3.org/2000/svg">
<path opacity="0.8" d="M32.0002 29.3098H39.8704V24.4399H31.8704C31.4439 20.553 30.1886 16.8026 28.1892 13.4421C26.1898 10.0817 23.4928 7.18927 20.2803 4.95996H36.8901V0.0898438H0.890137V4.95996H4.79028C10.2232 4.96817 15.4685 6.94689 19.553 10.5293C23.6374 14.1117 26.2836 19.0545 27.0002 24.4399H0.890137V29.3098H27.1003C26.83 32.4467 25.8999 35.491 24.3716 38.2437C22.8432 40.9963 20.751 43.3952 18.2314 45.2832C15.7119 47.1712 12.8218 48.5058 9.75073 49.1997C6.67968 49.8936 3.49671 49.9311 0.410156 49.3098V54.3098H0.520264L21.3103 75.0999H28.2002L7.60034 54.4998C13.9767 53.8314 19.9148 50.9418 24.3755 46.3367C28.8362 41.7315 31.5353 35.7043 32.0002 29.3098Z" fill="#2E3192"/>
</svg>
