<svg width="33" height="34" viewBox="0 0 33 34" fill="none" xmlns="http://www.w3.org/2000/svg">
<path d="M0 33.0898L2.80957 21.7698L20.04 4.53979L28.5498 13.0398L11.3096 30.2798L0 33.0898ZM4.78027 22.8398L3 30.0898L10.29 28.2598L25.6299 12.9299L20.1602 7.45996L4.82031 22.7998L4.78027 22.8398Z" fill="black"/>
<path d="M9.49023 29.5698C9.12438 28.1215 8.37368 26.7992 7.31738 25.7429C6.26109 24.6866 4.93856 23.9357 3.49023 23.5698L4.01953 21.4399C5.84192 21.8836 7.50773 22.8195 8.83398 24.1458C10.1602 25.472 11.0964 27.1376 11.54 28.96L9.49023 29.5598" fill="black"/>
<path d="M9.25977 25.3997L7.74023 23.7998L22.8496 8.6897L24.3701 10.2097L9.25977 25.3997Z" fill="black"/>
<path d="M1.51953 31.5498L4.86035 30.71C4.70414 30.1067 4.38879 29.5562 3.94727 29.1165C3.50574 28.6767 2.9535 28.3638 2.34961 28.21L1.51953 31.5498Z" fill="black"/>
<path d="M29.3799 12.1899L20.8799 3.67993L24.2998 0.269775L24.8301 0.339844C26.8308 0.606153 28.688 1.52432 30.1143 2.95239C31.5405 4.38046 32.456 6.23874 32.7197 8.23975L32.7998 8.76978L29.3799 12.1899ZM23.9902 3.67993L29.46 9.1499L30.5195 8.08984C30.2247 6.75285 29.5551 5.52784 28.5879 4.55884C27.6207 3.58984 26.396 2.91717 25.0596 2.61987L23.9902 3.67993Z" fill="black"/>
</svg>
