<svg width="75" height="42" viewBox="0 0 75 42" fill="none" xmlns="http://www.w3.org/2000/svg">
<path d="M72.7199 24.6503C71.4268 22.4981 69.4207 20.8668 67.0499 20.0402C68.0396 18.1683 68.2804 15.9901 67.7233 13.9474C67.1662 11.9046 65.8529 10.1503 64.0499 9.04015C63.1634 8.52514 62.1807 8.19754 61.1625 8.07726C60.1443 7.95698 59.1122 8.04666 58.13 8.34093C57.1479 8.6352 56.2364 9.12761 55.452 9.78795C54.6677 10.4483 54.0273 11.2626 53.57 12.1803C52.9297 13.3985 52.5951 14.754 52.5951 16.1302C52.5951 17.5065 52.9297 18.862 53.57 20.0802C52.7773 20.3565 52.0216 20.7294 51.32 21.1903C49.6828 19.8985 47.7809 18.9833 45.7499 18.5101C47.5582 16.224 48.4336 13.338 48.1998 10.4325C47.9661 7.527 46.6405 4.81779 44.4899 2.85021C43.4492 1.91235 42.2263 1.1992 40.8976 0.755239C39.5688 0.311274 38.1627 0.146013 36.7672 0.269887C35.3717 0.393762 34.0168 0.804127 32.787 1.47521C31.5572 2.14629 30.4792 3.06376 29.62 4.17028C28.0076 6.21236 27.1305 8.73827 27.1305 11.3402C27.1305 13.9421 28.0076 16.468 29.62 18.5101C27.5904 18.9873 25.6894 19.9021 24.0499 21.1903C23.3507 20.7315 22.5986 20.3587 21.8099 20.0802C22.7996 18.2084 23.0404 16.0302 22.4833 13.9874C21.9262 11.9447 20.6129 10.1904 18.8099 9.08019C17.923 8.56665 16.9404 8.23998 15.9225 8.12047C14.9046 8.00097 13.873 8.09122 12.8912 8.38537C11.9095 8.67951 10.9985 9.17141 10.214 9.83092C9.42953 10.4904 8.78837 11.3035 8.32996 12.2201C7.68972 13.4365 7.35511 14.7905 7.35511 16.1652C7.35511 17.5398 7.68972 18.8938 8.32996 20.1102C6.17889 20.8647 4.32297 22.2829 3.02992 24.1603C2.25728 25.2954 1.68253 26.5532 1.32996 27.8802C1.09048 28.8113 0.969418 29.7687 0.969857 30.7301V31.5602C0.94293 32.8027 1.40827 34.0054 2.26429 34.9064C3.12031 35.8073 4.29768 36.3336 5.53993 36.3702H18.2899C18.5924 37.7224 19.3403 38.9337 20.4139 39.8097C21.4876 40.6856 22.8245 41.1754 24.2098 41.2003H51.1298C52.5152 41.1754 53.8521 40.6856 54.9257 39.8097C55.9993 38.9337 56.7475 37.7224 57.0499 36.3702H69.7999C71.0422 36.3336 72.2196 35.8073 73.0756 34.9064C73.9316 34.0054 74.3969 32.8027 74.37 31.5602V30.7301C74.3704 29.7687 74.2494 28.8113 74.0099 27.8802C73.7719 26.7365 73.3352 25.6433 72.7199 24.6503ZM60.3099 10.0902C61.9012 10.0902 63.4274 10.7223 64.5526 11.8475C65.6778 12.9727 66.3099 14.4989 66.3099 16.0902C66.3099 17.6815 65.6778 19.2077 64.5526 20.3329C63.4274 21.4581 61.9012 22.0902 60.3099 22.0902C58.7186 22.0902 57.1925 21.4581 56.0673 20.3329C54.9421 19.2077 54.3099 17.6815 54.3099 16.0902C54.3099 14.4989 54.9421 12.9727 56.0673 11.8475C57.1925 10.7223 58.7186 10.0902 60.3099 10.0902ZM29.1698 11.2902C29.2578 9.62111 29.833 8.01443 30.8243 6.66881C31.8157 5.3232 33.1797 4.29779 34.7477 3.71911C36.3157 3.14043 38.019 3.03397 39.6469 3.41295C41.2747 3.79194 42.7557 4.6397 43.9069 5.85143C45.058 7.06316 45.8286 8.58572 46.1237 10.2308C46.4187 11.8759 46.2253 13.5715 45.567 15.1078C44.9087 16.644 43.8145 17.9535 42.4198 18.8746C41.0252 19.7957 39.3912 20.2878 37.7199 20.2902C35.3954 20.2273 33.1907 19.2461 31.5883 17.5611C29.9858 15.8762 29.1161 13.6248 29.1698 11.3002V11.2902ZM15.09 10.0902C16.6813 10.0902 18.2072 10.7223 19.3324 11.8475C20.4576 12.9727 21.09 14.4989 21.09 16.0902C21.09 17.6815 20.4576 19.2077 19.3324 20.3329C18.2072 21.4581 16.6813 22.0902 15.09 22.0902C13.4987 22.0902 11.9725 21.4581 10.8473 20.3329C9.72208 19.2077 9.08997 17.6815 9.08997 16.0902C9.08997 14.4989 9.72208 12.9727 10.8473 11.8475C11.9725 10.7223 13.4987 10.0902 15.09 10.0902ZM17.7299 33.0902V34.0201H6.12C5.39411 33.9992 4.70591 33.6921 4.2057 33.1656C3.70548 32.6392 3.43369 31.9363 3.44984 31.2103V30.4503C3.42349 28.5586 4.01729 26.7104 5.14051 25.1881C6.26373 23.6658 7.85456 22.553 9.66981 22.0201C10.2741 22.7395 11.0201 23.3266 11.8612 23.745C12.7024 24.1633 13.6208 24.4039 14.559 24.4518C15.4972 24.4996 16.435 24.3537 17.3143 24.0231C18.1937 23.6924 18.9955 23.1843 19.6698 22.5301C19.8432 22.3701 20.0068 22.1998 20.1598 22.0201C20.7796 22.1887 21.3771 22.4304 21.9398 22.7401C19.2234 25.4978 17.7097 29.2193 17.7299 33.0902ZM50.8798 39.0902H24.5499C23.3705 39.0588 22.2515 38.5613 21.4381 37.7067C20.6247 36.852 20.183 35.7097 20.2098 34.5301V33.3902C20.1491 30.218 21.2339 27.1301 23.2653 24.6927C25.2967 22.2554 28.1386 20.632 31.2699 20.1202C33.0586 21.6637 35.3424 22.5128 37.705 22.5128C40.0675 22.5128 42.3511 21.6637 44.1398 20.1202C47.271 20.6362 50.1121 22.262 52.143 24.7006C54.1738 27.1391 55.2589 30.2273 55.1998 33.4003V34.5301C55.2225 35.1179 55.1286 35.7043 54.9232 36.2555C54.7179 36.8067 54.4053 37.3117 54.0035 37.7413C53.6018 38.1709 53.1191 38.5166 52.5829 38.7584C52.0467 39.0002 51.4677 39.1335 50.8798 39.1503V39.0902ZM71.9899 31.1803C72.0033 31.9072 71.7295 32.6099 71.2277 33.1361C70.7259 33.6622 70.0367 33.9692 69.3099 33.9901H57.6898V33.0902C57.708 29.2158 56.1864 25.4927 53.4598 22.7401C54.0222 22.4272 54.6197 22.1821 55.2399 22.0101C55.8444 22.7283 56.5898 23.3148 57.4301 23.7333C58.2703 24.1517 59.1875 24.3933 60.1249 24.443C61.0623 24.4927 62 24.3494 62.8798 24.0221C63.7596 23.6948 64.5628 23.1904 65.2399 22.5402C65.4134 22.3732 65.577 22.1962 65.7299 22.0101C67.5477 22.5465 69.1403 23.6626 70.265 25.1881C71.3898 26.7136 71.985 28.5652 71.9598 30.4603L71.9899 31.1803Z" fill="#2E3192"/>
</svg>
