<svg width="76" height="76" viewBox="0 0 76 76" fill="none" xmlns="http://www.w3.org/2000/svg">
<g opacity="0.8">
<path d="M47.3301 21.0298H13.25V24.1299H47.3301V21.0298Z" fill="#2E3192"/>
<path d="M47.3301 30.3301H13.25V33.4302H47.3301V30.3301Z" fill="#2E3192"/>
<path d="M39.5901 39.6201H13.25V42.7202H39.5901V39.6201Z" fill="#2E3192"/>
<path d="M31.8401 48.9199H13.25V52.02H31.8401V48.9199Z" fill="#2E3192"/>
<path d="M31.8401 58.21H13.25V61.3101H31.8401V58.21Z" fill="#2E3192"/>
<path d="M59.72 28.1396V12.6499L48 0.889648H0.879883V75.25H59.75V48.0098L75.8799 31.8799L65.95 21.9399L59.72 28.1396ZM58.1699 34.0698L63.73 39.6196L45.1399 58.21H39.5801V52.6597L58.1699 34.0698ZM48.8799 6.17969L54.4299 11.7397H48.8799V6.17969ZM56.6201 72.1797H4V3.98975H45.8301V14.8398H56.6699V31.2397L36.53 51.3799V61.3101H46.47L56.6699 51.1099L56.6201 72.1797ZM65.9199 37.4497L60.3601 31.8999L65.9199 26.3398L71.47 31.8999L65.9199 37.4497Z" fill="#2E3192"/>
</g>
</svg>
