<svg width="59" height="76" viewBox="0 0 59 76" fill="none" xmlns="http://www.w3.org/2000/svg">
<g opacity="0.8">
<path d="M53.8 0.589921H5.28003C4.61589 0.577965 3.95592 0.698499 3.33887 0.944413C2.72181 1.19033 2.1599 1.55681 1.68604 2.02229C1.21217 2.48778 0.835984 3.04303 0.579102 3.6556C0.322219 4.26816 0.189834 4.92567 0.189941 5.58992V70.65C0.189834 71.3142 0.322219 71.9717 0.579102 72.5843C0.835984 73.1969 1.21217 73.7521 1.68604 74.2176C2.1599 74.6831 2.72181 75.0496 3.33887 75.2955C3.95592 75.5414 4.61589 75.6619 5.28003 75.65H53.8C54.4642 75.6619 55.1239 75.5414 55.741 75.2955C56.358 75.0496 56.9199 74.6831 57.3938 74.2176C57.8677 73.7521 58.2441 73.1969 58.501 72.5843C58.7579 71.9717 58.89 71.3142 58.8899 70.65V5.58992C58.89 4.92567 58.7579 4.26816 58.501 3.6556C58.2441 3.04303 57.8677 2.48778 57.3938 2.02229C56.9199 1.55681 56.358 1.19033 55.741 0.944413C55.1239 0.698499 54.4642 0.577965 53.8 0.589921ZM54.72 39.66H39.72V30.2799H54.72V39.66ZM37.47 39.66H4.46997V30.2799H37.47V39.66ZM4.46997 41.91H37.47V50.91H4.46997V41.91ZM39.72 41.91H54.72V50.91H39.72V41.91ZM54.72 28.0299H39.72V19.0299H54.72V28.0299ZM37.47 28.0299H4.46997V19.0299H37.47V28.0299ZM4.46997 53.16H37.47V62.5299H4.46997V53.16ZM39.72 53.16H54.72V62.5299H39.72V53.16ZM6.34009 4.40999H52.8401C53.337 4.40998 53.8135 4.6067 54.1658 4.95711C54.5181 5.30752 54.7173 5.78299 54.72 6.27986V16.7799H4.46997V6.27986C4.46997 5.78391 4.66713 5.30829 5.01782 4.9576C5.36852 4.6069 5.84413 4.40999 6.34009 4.40999ZM52.8401 71.91H6.34009C5.84322 71.9073 5.3675 71.7081 5.01709 71.3558C4.66668 71.0035 4.46996 70.5267 4.46997 70.0299V64.7799H54.72V70.0299C54.72 70.2767 54.6714 70.5213 54.5769 70.7493C54.4824 70.9774 54.344 71.1846 54.1694 71.3592C53.9949 71.5338 53.7874 71.6724 53.5593 71.7669C53.3312 71.8614 53.087 71.91 52.8401 71.91Z" fill="#2E3192"/>
<path d="M49.8398 9.27979H7.08984V11.5298H49.8398V9.27979Z" fill="#2E3192"/>
<path d="M48.3801 69.1599C45.8559 68.88 43.3103 68.8497 40.7802 69.0698C39.7802 69.1498 38.8601 69.4299 37.9201 69.4399C35.5501 69.4399 35.1002 68.8798 34.0102 67.2998C33.8302 67.0298 33.2602 67.2098 33.0102 67.2998C32.1389 67.738 31.2282 68.0929 30.2902 68.3599C30.0001 68.5361 29.6593 68.6102 29.3222 68.5703C28.9851 68.5304 28.6711 68.379 28.4301 68.1399L28.2802 67.5098C27.8402 67.2998 27.9202 67.0599 27.5102 66.9299C27.1002 66.7999 26.5103 67.0899 26.0803 67.1699C25.9603 67.1699 25.8702 67.3499 25.7702 67.3699L25.0903 67.9998C23.2803 68.5498 22.7502 68.2098 23.5202 66.9998C23.8402 66.6198 22.4401 66.7798 22.1901 67.0698C22.006 67.2384 21.8724 67.4548 21.8039 67.6948C21.7354 67.9349 21.7346 68.1893 21.8019 68.4297C21.8693 68.6701 22.002 68.8871 22.1852 69.0566C22.3685 69.2261 22.5954 69.3415 22.8403 69.3899C23.9103 69.7599 24.7301 68.9499 25.6301 68.6499C25.8301 68.5799 26.2401 67.8899 26.4101 67.9199C26.9401 68.0299 26.8801 69.0199 27.1401 69.1299C27.4001 69.2399 27.5202 69.5199 27.7902 69.6099C28.9802 70.0299 31.3102 68.7598 32.7902 68.0498C33.5102 69.3398 33.2601 70.2497 34.9501 70.4897C36.3701 70.6897 38.1903 69.9598 39.6003 69.7998C42.2162 69.52 44.8543 69.52 47.4702 69.7998C47.8102 69.8398 49.1201 69.2299 48.3801 69.1599Z" fill="#2E3192"/>
</g>
</svg>
