<svg width="75" height="72" viewBox="0 0 75 72" fill="none" xmlns="http://www.w3.org/2000/svg">
<g opacity="0.8">
<path d="M75 19.5898H0V0.969727H75V19.5898ZM3 16.5898H72V3.87988H3V16.5898Z" fill="#2E3192"/>
<path d="M71.8701 71.27H3.12988V16.6299H71.8701V71.27ZM6.09009 68.27H68.9099V19.5898H6.09009V68.27ZM49.25 36.7598H25.75C25.0422 36.7598 24.3412 36.6205 23.6873 36.3496C23.0333 36.0787 22.4392 35.6817 21.9387 35.1812C21.4382 34.6806 21.0411 34.0866 20.7703 33.4326C20.4994 32.7787 20.3601 32.0775 20.3601 31.3696C20.3601 30.6618 20.4994 29.9611 20.7703 29.3071C21.0411 28.6532 21.4382 28.0591 21.9387 27.5586C22.4392 27.0581 23.0333 26.661 23.6873 26.3901C24.3412 26.1193 25.0422 25.98 25.75 25.98H49.25C50.6795 25.98 52.0505 26.5478 53.0613 27.5586C54.0721 28.5694 54.6399 29.9401 54.6399 31.3696C54.6399 32.7991 54.0721 34.1703 53.0613 35.1812C52.0505 36.192 50.6795 36.7598 49.25 36.7598ZM25.75 28.9297C25.1029 28.9297 24.4822 29.1869 24.0247 29.6445C23.5671 30.1021 23.3101 30.7225 23.3101 31.3696C23.3101 32.0168 23.5671 32.6376 24.0247 33.0952C24.4822 33.5528 25.1029 33.8101 25.75 33.8101H49.25C49.8971 33.8101 50.5178 33.5528 50.9753 33.0952C51.4329 32.6376 51.6899 32.0168 51.6899 31.3696C51.6899 30.7225 51.4329 30.1021 50.9753 29.6445C50.5178 29.1869 49.8971 28.9297 49.25 28.9297H25.75Z" fill="#2E3192"/>
</g>
</svg>
