<svg width="72" height="76" viewBox="0 0 72 76" fill="none" xmlns="http://www.w3.org/2000/svg">
<path d="M69.75 72.25H65.6904V37.2998H69.3701C69.7971 37.2998 70.2069 37.1301 70.5088 36.8281C70.8107 36.5262 70.9805 36.1169 70.9805 35.6899C70.9805 35.2629 70.8107 34.8532 70.5088 34.5513C70.2069 34.2493 69.7971 34.0801 69.3701 34.0801H65.6904V14.46C65.6904 14.033 65.5207 13.6232 65.2188 13.3213C64.9168 13.0194 64.5071 12.8496 64.0801 12.8496H37.3096V10.5601H50.79C51.0015 10.5601 51.2109 10.5184 51.4062 10.4375C51.6016 10.3566 51.7792 10.2379 51.9287 10.0884C52.0782 9.93888 52.1964 9.76125 52.2773 9.56592C52.3583 9.37058 52.4004 9.16114 52.4004 8.94971V2.08984C52.4004 1.87842 52.3583 1.66897 52.2773 1.47363C52.1964 1.2783 52.0782 1.10067 51.9287 0.951172C51.7792 0.80167 51.6016 0.683449 51.4062 0.602539C51.2109 0.521629 51.0015 0.47998 50.79 0.47998H35.7002C35.2732 0.47998 34.8635 0.649238 34.5615 0.951172C34.2596 1.25311 34.0898 1.66285 34.0898 2.08984V12.8599H7.33008C6.90308 12.8599 6.49334 13.0296 6.19141 13.3315C5.88947 13.6335 5.71973 14.0427 5.71973 14.4697V34.0898H1.91016C1.48316 34.0898 1.07342 34.2596 0.771484 34.5615C0.469551 34.8635 0.299805 35.2727 0.299805 35.6997C0.299805 36.1267 0.469551 36.5364 0.771484 36.8384C1.07342 37.1403 1.48316 37.3101 1.91016 37.3101H6.34961V65.23C6.34961 65.657 6.51936 66.0662 6.82129 66.3682C7.12322 66.6701 7.53296 66.8398 7.95996 66.8398C8.38696 66.8398 8.7967 66.6701 9.09863 66.3682C9.40057 66.0662 9.57031 65.657 9.57031 65.23V37.3101H14.8496V72.2598H9.57031V65.2598C9.57031 64.8328 9.40057 64.4235 9.09863 64.1216C8.7967 63.8196 8.38696 63.6499 7.95996 63.6499C7.53296 63.6499 7.12322 63.8196 6.82129 64.1216C6.51936 64.4235 6.34961 64.8328 6.34961 65.2598V72.2598H2.29004C1.86304 72.2598 1.4533 72.4295 1.15137 72.7314C0.849434 73.0334 0.679688 73.4426 0.679688 73.8696C0.679688 74.2966 0.849434 74.7064 1.15137 75.0083C1.4533 75.3102 1.86304 75.48 2.29004 75.48H69.75C70.177 75.48 70.5867 75.3102 70.8887 75.0083C71.1906 74.7064 71.3604 74.2966 71.3604 73.8696C71.3604 73.4426 71.1906 73.0334 70.8887 72.7314C70.5867 72.4295 70.177 72.2598 69.75 72.2598V72.25ZM37.3096 3.68994H49.1797V7.33984H37.3096V3.68994ZM8.94043 34.0801V16.0801H62.4697V34.0801H8.94043ZM18.0703 37.2998H53.9697V72.25H46V49.6699C46 47.0178 44.9467 44.474 43.0713 42.5986C41.1959 40.7233 38.6522 39.6699 36 39.6699C33.3478 39.6699 30.8041 40.7233 28.9287 42.5986C27.0533 44.474 26 47.0178 26 49.6699V72.25H18.0703V37.2998ZM42.8096 49.6699V50.6699H37.6299V43.0898C39.1029 43.4529 40.4122 44.2977 41.3506 45.4897C42.289 46.6818 42.8024 48.1529 42.8096 49.6699ZM34.4102 50.6699H29.2197V49.6699C29.2247 48.1485 29.7383 46.6725 30.6787 45.4766C31.6191 44.2806 32.9329 43.4334 34.4102 43.0698V50.6699ZM29.2197 53.8896H34.4102V61.1597H29.2197V53.8896ZM37.6299 53.8896H42.8096V61.1597H37.6299V53.8896ZM29.2197 64.3799H34.4102V72.21H29.2197V64.3799ZM37.6299 72.21V64.3799H42.8096V72.21H37.6299ZM57.1904 72.21V37.2598H62.4697V72.21H57.1904Z" fill="white"/>
</svg>
