<svg width="76" height="76" viewBox="0 0 76 76" fill="none" xmlns="http://www.w3.org/2000/svg">
<path d="M37.8303 55.2399C34.3074 55.2419 30.863 54.1992 27.9328 52.2434C25.0026 50.2876 22.7179 47.5068 21.3683 44.2526C20.0188 40.9985 19.6647 37.4171 20.3508 33.9616C21.0368 30.5062 22.7325 27.3318 25.2228 24.84C27.7132 22.3483 30.8869 20.6511 34.342 19.9631C37.7971 19.2751 41.3781 19.6271 44.633 20.9748C47.8879 22.3225 50.6707 24.6053 52.6281 27.5344C54.5855 30.4634 55.6301 33.907 55.6301 37.4299C55.609 42.1452 53.7271 46.6616 50.3937 49.9968C47.0604 53.332 42.5455 55.2163 37.8303 55.2399ZM37.8303 23.4099C35.0613 23.4099 32.3542 24.2309 30.0519 25.7692C27.7497 27.3076 25.9553 29.4943 24.8957 32.0524C23.8361 34.6106 23.5586 37.4256 24.0988 40.1413C24.639 42.857 25.9729 45.3518 27.9308 47.3098C29.8888 49.2677 32.3831 50.6006 35.0988 51.1408C37.8146 51.681 40.6295 51.4041 43.1877 50.3444C45.7458 49.2848 47.9325 47.4905 49.4709 45.1882C51.0092 42.8859 51.8303 40.1788 51.8303 37.4099C51.8303 33.6968 50.3552 30.136 47.7297 27.5105C45.1042 24.8849 41.5433 23.4099 37.8303 23.4099Z" fill="white"/>
<path d="M43.1904 75.0898H32.4697L29.4697 65.9497C27.4645 65.3255 25.5144 64.5363 23.6396 63.5898L14.9697 68L7.41016 60.4399L11.8203 51.77C10.8066 49.9265 10.0141 47.9695 9.45996 45.9399L0.320312 42.9399V32.2197L9.45996 29.2197C10.0842 27.2145 10.8739 25.2644 11.8203 23.3896L7.41016 14.7197L14.9697 7.15967L23.6396 11.5698C25.4832 10.5561 27.4402 9.7641 29.4697 9.20996L32.4697 0.0698242H43.1904L46.1904 9.20996C48.1956 9.83418 50.1448 10.6234 52.0195 11.5698L60.6904 7.15967L68.25 14.7197L63.8398 23.3896C64.8535 25.2332 65.6461 27.1902 66.2002 29.2197L75.3398 32.2197V42.9399L66.2002 45.9399C65.576 47.9451 64.7863 49.8952 63.8398 51.77L68.25 60.4399L60.6904 68L52.0195 63.5898C50.176 64.6035 48.22 65.3956 46.1904 65.9497L43.1904 75.0898ZM35.1904 71.4697H40.5498L43.3799 62.96L44.3799 62.6396C46.7534 61.9953 49.0329 61.0443 51.1602 59.8101L52.0996 59.3301L60.0996 63.4297L63.8799 59.6499L59.7803 51.6499L60.25 50.71C61.5168 48.5978 62.4731 46.3141 63.0898 43.9297L63.4102 42.9897L71.9102 40.1499V34.79L63.4102 31.96L63.0898 31.0098C62.4713 28.6291 61.515 26.3492 60.25 24.2397L59.7803 23.29L63.8799 15.29L60.0996 11.5L52.0996 15.5996L51.1602 15.1299C49.0471 13.8648 46.7637 12.9086 44.3799 12.29L43.3799 11.98L40.5498 3.46973H35.1904L32.3604 11.98L31.4102 12.29C29.0363 12.9379 26.7568 13.8925 24.6299 15.1299L23.6904 15.5996L15.6904 11.5L11.9102 15.29L16.0098 23.29L15.54 24.2397C14.275 26.3492 13.3188 28.6291 12.7002 31.0098L12.3799 31.96L3.87988 34.79V40.0898L12.3799 42.9297L12.7002 43.8696C13.317 46.2541 14.2733 48.5377 15.54 50.6499L16.0098 51.5898L11.9102 59.5898L15.6904 63.3696L23.6904 59.27L24.6299 59.75C26.7434 61.0118 29.0268 61.9649 31.4102 62.5801L32.3604 62.8999L35.1904 71.4097V71.4697Z" fill="white"/>
</svg>
