<svg width="76" height="59" viewBox="0 0 76 59" fill="none" xmlns="http://www.w3.org/2000/svg">
<g opacity="0.8">
<path d="M51.3099 28.7996C50.0751 28.8622 48.8383 28.7204 47.6498 28.3797C45.2198 27.3797 38.2498 22.6698 36.9598 21.7898C35.4398 21.5298 26.8799 20.0698 25.0199 19.7898C24.4791 19.6955 23.9628 19.4932 23.5018 19.1951C23.0408 18.8971 22.6445 18.5094 22.3365 18.055C22.0286 17.6005 21.8153 17.0887 21.7093 16.5501C21.6034 16.0115 21.607 15.457 21.7198 14.9197C21.7578 14.6831 21.8112 14.4491 21.8798 14.2195C15.0698 16.9495 3.93991 20.8695 1.53991 18.4695C0.995754 18.0256 0.577999 17.4464 0.328733 16.7898C0.0794673 16.1333 0.00755475 15.423 0.119993 14.7298C0.639993 12.3898 3.62985 11.2397 3.96985 11.1097L36.0199 0.429497C37.5999 -0.0905032 52.6699 3.36956 61.5099 5.48956L61.0099 7.57989C50.3099 5.01989 38.1998 2.36956 36.6298 2.48956L4.62976 13.1395C4.08976 13.3395 2.3998 14.1395 2.1698 15.1395C2.0598 15.6395 2.3499 16.2295 3.0199 16.9095C4.23989 17.9095 13.7098 15.2899 23.6998 11.0799L23.9498 10.9798L39.4698 12.5296L39.2999 14.6697C38.8499 14.6697 28.0699 14.0097 25.4899 13.6697C25.2919 13.631 25.0876 13.6389 24.8932 13.6927C24.6988 13.7465 24.5198 13.8448 24.37 13.9798C24.0591 14.317 23.863 14.7439 23.8099 15.1995C23.7429 15.4577 23.728 15.7266 23.7665 15.9905C23.8049 16.2544 23.8959 16.5083 24.0338 16.7366C24.1717 16.9649 24.3537 17.1633 24.5695 17.3201C24.7852 17.477 25.0302 17.5889 25.2899 17.6497C27.3499 17.9397 37.0999 19.6497 37.5099 19.6497H37.7499L37.9398 19.7796C40.1798 21.3196 46.4098 25.4796 48.3998 26.2796C50.0598 26.9396 57.0499 26.2795 61.0699 25.6995L61.37 27.8299C58.0388 28.3524 54.6795 28.676 51.3099 28.7996Z" fill="#2E3192"/>
<path d="M72.6895 31H62.5396C61.9154 30.9974 61.3176 30.7475 60.8772 30.3052C60.4368 29.8629 60.1894 29.2638 60.1895 28.6396V5.27979C60.1895 4.65653 60.4372 4.05887 60.8779 3.61816C61.3186 3.17745 61.9163 2.92969 62.5396 2.92969H72.6895C73.3127 2.92969 73.9106 3.17745 74.3513 3.61816C74.792 4.05887 75.0396 4.65653 75.0396 5.27979V28.6396C75.0396 29.2638 74.7922 29.8629 74.3518 30.3052C73.9114 30.7475 73.3136 30.9974 72.6895 31ZM62.5396 5.08984C62.4846 5.09229 62.4327 5.11543 62.3938 5.1543C62.3549 5.19316 62.332 5.24489 62.3296 5.2998V28.6597C62.3296 28.7154 62.3517 28.7687 62.3911 28.8081C62.4305 28.8475 62.4839 28.8696 62.5396 28.8696H72.6895C72.7451 28.8696 72.7985 28.8475 72.8379 28.8081C72.8773 28.7687 72.8994 28.7154 72.8994 28.6597V5.2998C72.897 5.24489 72.8741 5.19316 72.8352 5.1543C72.7963 5.11543 72.7444 5.09229 72.6895 5.08984H62.5396Z" fill="#2E3192"/>
<path d="M29.6895 35.6197C29.6799 37.1196 29.2212 38.5825 28.3729 39.8195C27.5245 41.0564 26.3252 42.011 24.9295 42.5602C23.4859 43.0939 21.9113 43.1606 20.4276 42.7516C18.9438 42.3425 17.6257 41.478 16.6595 40.2799C12.4795 35.0799 17.1495 27.11 23.6595 28.36C25.3453 28.6887 26.8649 29.5922 27.9591 30.9161C29.0532 32.2401 29.6542 33.9022 29.6595 35.6197C29.6595 37.9697 33.3596 37.9997 33.3096 35.6197C33.2922 33.3477 32.5848 31.1349 31.2811 29.274C29.9774 27.4132 28.139 25.9922 26.0096 25.1998C23.8784 24.4446 21.5653 24.3692 19.3892 24.9835C17.2132 25.5978 15.2814 26.8718 13.8597 28.63C12.4581 30.3884 11.6141 32.5257 11.4359 34.7672C11.2577 37.0088 11.7535 39.2524 12.8597 41.2101C14.0907 43.2764 15.9648 44.8823 18.1954 45.7819C20.426 46.6814 22.89 46.8247 25.21 46.1905C27.5301 45.5564 29.5785 44.1793 31.0413 42.2701C32.5042 40.361 33.3009 38.0249 33.3096 35.6197C33.3896 33.2697 29.7395 33.2697 29.6895 35.6197Z" fill="#2E3192"/>
<path d="M6.66961 57.6499C8.73202 55.5481 11.1899 53.8747 13.9015 52.7266C16.6132 51.5784 19.525 50.9782 22.4697 50.96C28.3359 51.1169 33.9204 53.5101 38.0798 57.6499C39.7798 59.2999 42.3596 56.6501 40.6596 55.0601C35.8117 50.2411 29.303 47.4608 22.4697 47.29C15.5575 47.352 8.95041 50.1451 4.08978 55.0601C2.38978 56.7001 4.96961 59.2999 6.66961 57.6499Z" fill="#2E3192"/>
</g>
</svg>
