<svg width="76" height="76" viewBox="0 0 76 76" fill="none" xmlns="http://www.w3.org/2000/svg">
<g opacity="0.8">
<path d="M71.9199 0.870134L37.5401 7.12013L3.16994 0.870134C2.75399 0.851683 2.3388 0.920049 1.9507 1.07082C1.5626 1.22159 1.2102 1.45146 0.915788 1.74587C0.621378 2.04028 0.391508 2.39268 0.240739 2.78078C0.0899706 3.16888 0.0216045 3.58407 0.0400558 4.00002V66.5C0.0230311 66.9151 0.0922625 67.3294 0.243669 67.7163C0.395076 68.1032 0.625438 68.4545 0.919694 68.7478C1.21395 69.0411 1.56575 69.27 1.95314 69.4202C2.34053 69.5704 2.75487 69.6385 3.16994 69.6201L37.5401 75.8701L71.9199 69.6201C72.3342 69.6371 72.7476 69.5678 73.1338 69.417C73.52 69.2662 73.8707 69.0371 74.1638 68.7439C74.457 68.4507 74.6861 68.1001 74.8369 67.7139C74.9877 67.3277 75.057 66.9143 75.0401 66.5V4.00002C75.0584 3.58494 74.9903 3.17061 74.8401 2.78322C74.6899 2.39583 74.4611 2.04403 74.1677 1.74977C73.8744 1.45552 73.5232 1.2254 73.1362 1.07399C72.7493 0.922585 72.3351 0.853109 71.9199 0.870134ZM34.4199 71.4502L3.8401 65.8201V57.0901L34.4199 63.3401V71.4502ZM34.4199 60.25L3.8401 54V4.67018L34.4199 10.3001V60.25ZM71.24 65.8201L40.6699 71.4502V63.3701L71.24 57.1201V65.8201ZM71.24 54L40.6699 60.25V10.3001L71.24 4.67018V54Z" fill="#2E3192"/>
<path d="M62.54 44.6201L46.9199 47.7402V50.8701L62.54 47.7402V44.6201Z" fill="#2E3192"/>
<path d="M62.54 35.2402L46.9199 38.3701V41.4902L62.54 38.3701V35.2402Z" fill="#2E3192"/>
<path d="M62.54 25.8701L46.9199 28.9902V32.1201L62.54 28.9902V25.8701Z" fill="#2E3192"/>
<path d="M62.54 16.4902L46.9199 19.6201V22.7402L62.54 19.6201V16.4902Z" fill="#2E3192"/>
</g>
</svg>
