<svg width="67" height="76" viewBox="0 0 67 76" fill="none" xmlns="http://www.w3.org/2000/svg">
<g opacity="0.8">
<path d="M18.0005 72.7297C18.0005 72.9127 17.9277 73.0884 17.7983 73.2178C17.6689 73.3472 17.4935 73.4199 17.3105 73.4199H11.0005C10.8175 73.4199 10.6421 73.3472 10.5127 73.2178C10.3833 73.0884 10.3105 72.9127 10.3105 72.7297V67.6499H18.0105L18.0005 72.7297Z" fill="#2E3192"/>
<path d="M56.4503 72.7297C56.4503 72.911 56.379 73.0852 56.2518 73.2144C56.1245 73.3435 55.9516 73.4173 55.7703 73.4199H49.4403C49.3501 73.4199 49.261 73.402 49.1778 73.3672C49.0946 73.3324 49.0192 73.2812 48.9559 73.217C48.8926 73.1528 48.8427 73.0768 48.8092 72.9932C48.7756 72.9095 48.759 72.8199 48.7603 72.7297V67.6499H56.4503V72.7297Z" fill="#2E3192"/>
<path d="M55.1501 0.339844H11.5903C9.71698 0.342493 7.92113 1.08847 6.59741 2.41406C5.27369 3.73966 4.53027 5.53656 4.53027 7.40991V63.8599C4.54317 64.8593 4.94529 65.8143 5.65112 66.522C6.35696 67.2297 7.3109 67.6344 8.3103 67.6499H8.37036V72.7297C8.373 73.4211 8.6488 74.0836 9.1377 74.5725C9.6266 75.0614 10.2888 75.3372 10.9802 75.3398H17.3003C17.9917 75.3372 18.6539 75.0614 19.1428 74.5725C19.6317 74.0836 19.9075 73.4211 19.9102 72.7297V67.6499H46.8303V72.7297C46.833 73.4211 47.1088 74.0836 47.5977 74.5725C48.0866 75.0614 48.7488 75.3372 49.4402 75.3398H55.7703C56.4599 75.3346 57.1197 75.0577 57.6064 74.5691C58.0932 74.0805 58.3677 73.4194 58.3704 72.7297V67.6499H58.4302C59.4305 67.6344 60.3856 67.2301 61.093 66.5227C61.8005 65.8153 62.2047 64.8602 62.2202 63.8599V7.40991C62.2149 5.53645 61.4683 3.74124 60.1436 2.4165C58.8188 1.09176 57.0236 0.345121 55.1501 0.339844ZM59.1003 62.6799C59.1003 63.152 58.9127 63.6047 58.5789 63.9385C58.245 64.2723 57.7924 64.46 57.3203 64.46H9.47021C8.99813 64.46 8.54548 64.2723 8.21167 63.9385C7.87786 63.6047 7.69019 63.152 7.69019 62.6799V38.7998H59.1003V62.6799ZM59.1003 36.8799H7.69019V14.7598H59.1003V36.8799ZM59.1003 12.5999H7.69019V7.7998C7.74222 6.5477 8.28812 5.36715 9.20825 4.51636C10.1284 3.66557 11.348 3.21374 12.6003 3.25977H54.1902C55.4425 3.21374 56.6621 3.66557 57.5823 4.51636C58.5024 5.36715 59.0483 6.5477 59.1003 7.7998V12.5999Z" fill="#2E3192"/>
<path d="M13.1799 58.9896C14.1317 58.9896 15.0621 58.7073 15.8533 58.1784C16.6445 57.6494 17.261 56.8977 17.6248 56.0182C17.9885 55.1387 18.0831 54.171 17.8967 53.2377C17.7103 52.3044 17.2513 51.4473 16.5776 50.775C15.904 50.1028 15.046 49.6453 14.1123 49.4608C13.1786 49.2764 12.211 49.3731 11.3323 49.7387C10.4535 50.1043 9.70312 50.7225 9.17579 51.5148C8.64847 52.3071 8.36815 53.2381 8.37013 54.1898C8.37278 55.4638 8.88047 56.6845 9.78224 57.5844C10.684 58.4843 11.906 58.9896 13.1799 58.9896Z" fill="#2E3192"/>
<path d="M13.1799 51.2998C13.7515 51.2998 14.3104 51.4693 14.7857 51.7869C15.2609 52.1044 15.6314 52.5559 15.8501 53.084C16.0689 53.6121 16.1259 54.1931 16.0144 54.7537C15.9029 55.3143 15.6278 55.8292 15.2237 56.2334C14.8195 56.6376 14.3045 56.9129 13.7439 57.0244C13.1833 57.1359 12.6021 57.0786 12.074 56.8599C11.5459 56.6411 11.0947 56.2707 10.7771 55.7954C10.4596 55.3202 10.2901 54.7615 10.2901 54.19C10.2887 53.8101 10.3626 53.4335 10.5073 53.0823C10.6521 52.7311 10.8649 52.412 11.1336 52.1433C11.4022 51.8747 11.7213 51.6619 12.0725 51.5171C12.4238 51.3723 12.8001 51.2985 13.1799 51.2998Z" fill="#2E3192"/>
<path d="M53.5601 58.9897C56.2165 58.9897 58.3701 56.8362 58.3701 54.1797C58.3701 51.5232 56.2165 49.3699 53.5601 49.3699C50.9036 49.3699 48.75 51.5232 48.75 54.1797C48.75 56.8362 50.9036 58.9897 53.5601 58.9897Z" fill="#2E3192"/>
<path d="M53.5603 51.2998C54.1323 51.2978 54.6919 51.4656 55.1685 51.782C55.645 52.0984 56.017 52.549 56.2373 53.0769C56.4576 53.6048 56.5164 54.1863 56.406 54.7476C56.2956 55.3088 56.0212 55.8246 55.6174 56.2298C55.2137 56.6349 54.6986 56.9114 54.1377 57.0237C53.5768 57.136 52.9952 57.0793 52.4666 56.8609C51.9379 56.6424 51.486 56.2719 51.168 55.7964C50.85 55.3209 50.6802 54.762 50.6802 54.19C50.6802 53.4252 50.9834 52.6916 51.5232 52.1499C52.063 51.6082 52.7956 51.3025 53.5603 51.2998Z" fill="#2E3192"/>
<path d="M23.7603 54.1899C23.7603 53.9247 23.8657 53.6702 24.0532 53.4827C24.2408 53.2951 24.495 53.1899 24.7603 53.1899H42.0002C42.2121 53.2475 42.3991 53.3732 42.5325 53.5476C42.6658 53.722 42.738 53.9353 42.738 54.1548C42.738 54.3743 42.6658 54.5878 42.5325 54.7622C42.3991 54.9366 42.2121 55.0623 42.0002 55.1199H24.6902C24.4489 55.1035 24.2218 55.0003 24.0508 54.8293C23.8798 54.6584 23.7766 54.4312 23.7603 54.1899Z" fill="#2E3192"/>
<path d="M10.6201 2.25977H56.3401C57.401 2.25977 58.4183 2.68125 59.1685 3.4314C59.9186 4.18154 60.3401 5.1989 60.3401 6.25977V12.8796H6.70996V6.25977C6.7097 5.21431 7.11882 4.21026 7.84961 3.46265C8.5804 2.71504 9.57493 2.28329 10.6201 2.25977Z" fill="#2E3192"/>
<path d="M2.14025 20.5598C1.63806 20.5598 1.15643 20.361 0.800402 20.0068C0.444369 19.6527 0.242986 19.1721 0.240343 18.6699V8.96973C0.221412 8.7093 0.256471 8.44798 0.343126 8.20166C0.429781 7.95534 0.566186 7.72954 0.744005 7.53833C0.921824 7.34712 1.13718 7.19437 1.37657 7.09009C1.61596 6.9858 1.87425 6.93213 2.13536 6.93213C2.39648 6.93213 2.65476 6.9858 2.89415 7.09009C3.13354 7.19437 3.3489 7.34712 3.52672 7.53833C3.70454 7.72954 3.84094 7.95534 3.9276 8.20166C4.01425 8.44798 4.04931 8.7093 4.03038 8.96973V18.6699C4.03038 19.1712 3.83111 19.6519 3.47667 20.0063C3.12223 20.3608 2.6415 20.5598 2.14025 20.5598Z" fill="#2E3192"/>
<path d="M64.6402 20.5598C64.1381 20.5598 63.6564 20.361 63.3004 20.0068C62.9444 19.6527 62.743 19.1721 62.7403 18.6699V8.96973C62.7214 8.7093 62.7565 8.44798 62.8431 8.20166C62.9298 7.95534 63.0662 7.72954 63.244 7.53833C63.4218 7.34712 63.6372 7.19437 63.8766 7.09009C64.116 6.9858 64.3742 6.93213 64.6354 6.93213C64.8965 6.93213 65.1548 6.9858 65.3942 7.09009C65.6335 7.19437 65.8489 7.34712 66.0267 7.53833C66.2045 7.72954 66.3409 7.95534 66.4276 8.20166C66.5143 8.44798 66.5493 8.7093 66.5304 8.96973V18.6699C66.5304 19.1712 66.3311 19.6519 65.9767 20.0063C65.6222 20.3608 65.1415 20.5598 64.6402 20.5598Z" fill="#2E3192"/>
</g>
</svg>
